<svg width="400" height="408" viewBox="0 0 400 408" fill="none" xmlns="http://www.w3.org/2000/svg">
<path d="M157.998 285.619C153.808 286.792 153.347 281.68 154.311 279.041C155.275 276.359 158.04 273.51 161.098 273.72C162.816 273.845 164.995 275.773 163.78 277.49C163.193 278.37 162.062 278.999 161.35 279.795C160.428 280.842 159.716 282.057 159.171 283.314C158.794 284.194 158.626 285.242 157.705 285.702C156.49 286.289 157.537 288.091 158.752 287.504C160.428 286.666 160.637 284.906 161.434 283.356C162.104 282.057 163.026 280.926 164.115 279.962C164.702 279.46 165.372 278.999 165.791 278.328C168.179 274.558 162.942 271.038 159.59 271.75C155.316 272.63 152.174 276.611 151.755 280.884C151.336 284.823 154.227 288.845 158.543 287.63C159.841 287.295 159.297 285.242 157.998 285.619Z" fill="#FFEEF0"/>
<path d="M360.532 292.532C365.895 293.873 362.544 299.99 359.736 301.959C357.264 303.719 353.117 304.598 350.435 302.713C348.969 301.707 347.796 298.649 349.597 297.35C350.519 296.722 352.237 296.764 353.284 296.47C354.918 295.967 356.468 295.171 357.851 294.124C358.773 293.454 359.611 292.448 360.826 292.532C362.167 292.658 362.167 290.521 360.826 290.437C358.857 290.269 357.642 291.778 356.133 292.783C354.751 293.705 353.2 294.375 351.566 294.752C350.645 294.962 349.681 295.004 348.843 295.423C344.486 297.476 347.083 303.719 350.561 305.101C355.086 306.945 360.491 304.976 363.507 301.33C366.356 297.853 366.356 291.778 361.161 290.521C359.778 290.186 359.234 292.197 360.532 292.532Z" fill="#FFEEF0"/>
<path d="M186.07 169.645C185.651 164.575 191.558 164.827 194.575 166.587C197.55 168.304 199.854 171.656 199.603 175.217C199.477 177.229 197.257 179.994 194.952 179.114C193.779 178.653 193.193 176.768 192.522 175.804C191.558 174.38 190.385 173.164 189.045 172.117C187.997 171.321 186.363 170.734 186.028 169.394C185.693 168.095 183.682 168.64 184.017 169.938C184.52 171.991 186.405 172.704 187.913 173.877C189.38 175.008 190.553 176.474 191.475 178.067C191.936 178.863 192.271 179.701 192.983 180.329C194.575 181.795 197.005 181.418 198.681 180.371C200.692 179.156 201.74 176.977 201.698 174.631C201.614 169.855 198.22 165.665 193.863 163.947C189.589 162.271 183.514 164.073 183.975 169.645C184.059 170.944 186.154 170.986 186.07 169.645Z" fill="#FFEEF0"/>
<path d="M46.7168 211.082C48.0994 211.669 48.8955 213.47 48.8536 214.895C48.7698 218.163 44.3286 221.054 40.3902 220.928C38.2534 220.844 34.9015 219.839 34.1055 217.199C33.6865 215.858 33.9379 214.015 35.0691 213.051C36.2842 212.004 37.4573 213.009 40.5578 212.548C44.0772 212.004 45.0827 210.37 46.7168 211.082Z" fill="#FFEEF0"/>
<path d="M371.719 150.246C371.636 149.324 372.264 148.361 372.934 147.9C374.778 146.685 378.214 148.235 379.722 150.623C380.811 152.383 381.146 155.148 379.848 156.489C379.722 156.615 378.968 157.327 378.088 157.201C376.999 157.034 376.873 155.735 375.49 154.059C373.605 151.713 371.845 151.713 371.719 150.246Z" fill="#FFEEF0"/>
<path d="M140.862 360.155C142.227 360.155 143.334 359.048 143.334 357.683C143.334 356.318 142.227 355.211 140.862 355.211C139.496 355.211 138.39 356.318 138.39 357.683C138.39 359.048 139.496 360.155 140.862 360.155Z" fill="#FFD0D4"/>
<path d="M297.35 80.6117C298.715 80.6117 299.822 79.5049 299.822 78.1397C299.822 76.7745 298.715 75.6677 297.35 75.6677C295.985 75.6677 294.878 76.7745 294.878 78.1397C294.878 79.5049 295.985 80.6117 297.35 80.6117Z" fill="#FFD0D4"/>
<path d="M234.881 293.873C236.824 293.873 238.4 292.297 238.4 290.353C238.4 288.409 236.824 286.834 234.881 286.834C232.937 286.834 231.361 288.409 231.361 290.353C231.361 292.297 232.937 293.873 234.881 293.873Z" fill="#FFD0D4"/>
<path d="M301.792 328.606C302.949 328.606 303.887 327.668 303.887 326.511C303.887 325.354 302.949 324.416 301.792 324.416C300.635 324.416 299.697 325.354 299.697 326.511C299.697 327.668 300.635 328.606 301.792 328.606Z" fill="#FFD0D4"/>
<path d="M133.613 192.982C134.585 192.982 135.373 192.194 135.373 191.223C135.373 190.251 134.585 189.463 133.613 189.463C132.641 189.463 131.854 190.251 131.854 191.223C131.854 192.194 132.641 192.982 133.613 192.982Z" fill="#FFD0D4"/>
<path d="M41.3955 33.0995C42.3673 33.0995 43.1552 32.3117 43.1552 31.3398C43.1552 30.3679 42.3673 29.5801 41.3955 29.5801C40.4236 29.5801 39.6357 30.3679 39.6357 31.3398C39.6357 32.3117 40.4236 33.0995 41.3955 33.0995Z" fill="#FFEEF0"/>
<path d="M77.5115 283.943C78.1399 275.856 81.4499 267.77 86.6452 261.527C95.1086 251.304 108.223 246.36 121.295 246.528C122.636 246.528 122.636 244.433 121.295 244.433C110.778 244.307 100.178 247.324 91.7568 253.734C84.3827 259.349 79.2293 267.393 76.7573 276.317C76.0869 278.831 75.5842 281.387 75.4166 283.943C75.2909 285.284 77.3858 285.284 77.5115 283.943Z" fill="#FFEEF0"/>
<path d="M267.519 31.34C267.142 36.4515 264.628 41.3536 260.145 44.035C256.081 46.507 250.928 46.507 246.654 44.5797C245.439 44.035 244.35 45.8366 245.607 46.3813C250.592 48.6438 256.458 48.6857 261.235 45.8367C266.346 42.7362 269.195 37.1638 269.614 31.2981C269.698 29.9992 267.603 29.9992 267.519 31.34Z" fill="#FFEEF0"/>
<path d="M344.024 54.4676C344.862 54.4676 348.005 54.5514 350.812 56.8977C353.745 59.3697 354.289 62.6377 354.415 63.3919C354.415 62.4701 354.625 59.1602 357.139 56.5206C359.82 53.7135 364.052 52.7498 368.074 53.9649C365.937 53.2945 363.088 51.9538 361.37 49.398C360.951 48.7695 360.742 48.2667 360.7 48.141C359.569 45.2501 361.077 42.3172 361.663 41.2698C361.203 41.8563 357.893 45.711 352.781 45.5853C350.728 45.5434 349.136 44.8311 348.13 44.3283C348.424 44.6216 350.351 46.4651 350.142 49.0209C349.932 51.7443 347.418 54.1325 344.024 54.4676Z" fill="#FFEEF0"/>
<path d="M45.1243 355.253C45.7109 354.708 48.0991 352.614 51.828 352.488C55.6826 352.362 58.2803 354.373 58.8669 354.876C58.2384 354.164 56.1854 351.608 56.2692 347.963C56.353 344.108 58.8669 340.547 62.6796 338.745C60.6266 339.667 57.6518 340.589 54.6352 339.835C53.881 339.625 53.4201 339.416 53.2525 339.332C50.4454 337.949 49.6074 334.765 49.356 333.634C49.3979 334.388 49.5236 339.458 45.669 342.768C44.1188 344.108 42.4429 344.653 41.3535 344.946C41.7725 344.946 44.4121 345.03 45.9623 347.083C47.6801 349.304 47.4287 352.781 45.1243 355.253Z" fill="#FFEEF0"/>
<path d="M204.839 350.686L380.434 327.349C381.02 329.109 389.567 357.013 374.4 371.761C370.839 375.196 367.068 376.872 365.392 377.543C346.58 384.959 326.972 368.786 325.212 367.236C325.338 368.66 326.427 384.414 314.277 394.218C302.294 403.897 287.588 399.623 284.445 398.659C264.669 392.626 257.966 371.426 257.254 369.037C254.279 373.772 244.558 387.891 227.129 391.62C222.436 392.626 214.727 394.26 208.819 390.322C200.105 384.623 197.8 368.451 204.839 350.686Z" fill="#FFEEF0"/>
<path d="M346.748 202.577C344.192 212.297 339.96 227.758 326.93 242.129C321.358 248.288 309.71 261.192 291.694 264.083C267.1 268.063 242.966 251.472 231.361 232.785C211.962 201.655 227.632 165.288 229.978 159.841C230.942 157.62 231.989 155.4 233.162 153.263C234.118 153.489 235.597 153.849 237.398 154.361C239.665 155.002 240.029 155.19 240.989 155.236C243.218 155.349 244.952 154.524 245.774 154.118C246.394 153.812 247.504 153.259 248.564 152.123C248.564 152.123 249.448 151.181 250.081 149.89C251.099 147.816 251.757 140.199 251.342 129.88C255.071 126.402 259.093 123.176 263.408 120.117C271.822 129.167 285.635 141.867 305.637 152.215C323.071 161.232 339.08 165.296 350.472 167.253C350.728 177.689 350.351 188.834 346.748 202.577Z" fill="#FF8B8B"/>
<path d="M363.549 95.0246C361.203 98.9211 357.348 105.792 354.038 114.884C352.697 118.655 350.854 123.85 349.723 130.931C348.466 138.766 348.549 145.721 349.094 151.294C341.209 151.457 318.605 150.866 298.134 134.995C288.149 127.253 282.028 118.475 278.454 112.203C288.342 107.468 301.205 102.482 316.707 99.0468C335.31 94.8989 351.524 94.438 363.549 95.0246Z" fill="#FF8B8B"/>
<path d="M293.202 200.943C289.683 200.901 286.54 199.015 284.781 195.999C284.11 194.825 282.309 195.873 282.979 197.046C285.074 200.733 288.97 202.996 293.202 203.037C294.543 203.079 294.543 200.984 293.202 200.943Z" fill="#41214C"/>
<path d="M376.202 209.113C379.441 209.113 382.067 206.487 382.067 203.247C382.067 200.008 379.441 197.381 376.202 197.381C372.962 197.381 370.336 200.008 370.336 203.247C370.336 206.487 372.962 209.113 376.202 209.113Z" fill="#FF8B8B"/>
<path d="M375.909 202.242C370.629 204.378 366.146 208.107 363.926 213.47C361.747 218.708 362.082 224.49 362.376 230.02C362.669 235.215 363.172 241.333 359.443 245.48C355.42 250.047 347.795 251.556 342.306 249.084C334.932 245.774 333.508 236.598 335.603 229.601C335.98 228.302 333.969 227.758 333.592 229.056C331.748 235.173 332.251 242.254 336.524 247.282C340.505 252.016 347.125 253.232 352.907 251.639C358.437 250.131 362.878 246.276 364.093 240.578C365.35 234.796 364.093 228.763 364.219 222.897C364.303 219.168 364.931 215.398 366.859 212.13C369.037 208.443 372.515 205.803 376.453 204.211C377.71 203.75 377.166 201.739 375.909 202.242Z" fill="#41214C"/>
<path d="M283.943 233.12C287.182 233.12 289.809 230.494 289.809 227.255C289.809 224.015 287.182 221.389 283.943 221.389C280.703 221.389 278.077 224.015 278.077 227.255C278.077 230.494 280.703 233.12 283.943 233.12Z" fill="#FF4C4C"/>
<path d="M283.021 226.081C272.672 237.058 258.427 247.282 242.799 247.784C236.765 247.994 230.774 246.402 226.207 242.296C220.132 236.849 216.906 228.469 218.456 220.341C220.174 211.375 226.794 204.336 234.67 200.23C235.885 199.602 234.796 197.8 233.623 198.428C226.165 202.283 219.88 208.61 217.241 216.738C214.601 224.782 216.361 233.581 221.514 240.285C230.732 252.184 246.402 251.388 259.055 245.983C268.775 241.835 277.281 235.215 284.487 227.548C285.451 226.584 283.942 225.076 283.021 226.081Z" fill="#41214C"/>
<path d="M250.927 160.511C249.125 161.768 246.988 159.673 244.474 160.008C242.002 160.344 239.069 162.983 236.43 172.201L233.455 170.818C233.748 169.98 236.723 160.972 240.955 155.861C242.673 155.986 244.223 155.735 245.647 155.106C247.03 154.478 248.036 153.556 248.79 152.676C249.963 153.053 251.262 153.766 251.89 155.106C252.77 156.95 252.351 159.506 250.927 160.511Z" fill="white"/>
<path d="M250.047 151C249.754 151.461 249.335 152.09 248.79 152.718C248.413 152.592 248.048 152.509 247.717 152.45C247.717 152.45 247.277 152.37 246.863 152.341C246.129 152.286 243.766 153.539 241.039 155.869C240.997 155.865 240.955 155.865 240.913 155.86C239.949 155.844 238.646 155.722 237.18 155.278C235.357 154.725 233.996 153.9 233.12 153.263C234.938 149.643 237.461 145.348 240.942 140.861C244.542 136.223 248.203 132.624 251.346 129.926C253.147 136.964 253.86 145.134 250.047 151Z" fill="#F68201"/>
<path d="M248.79 152.718C248.287 153.334 247.278 154.407 245.648 155.148C243.611 156.074 241.764 155.961 240.955 155.86C241.156 155.538 243.368 152.106 246.758 152.22C247.273 152.236 247.981 152.341 248.79 152.718Z" fill="#F6EF00"/>
<path d="M251.345 129.968C243.929 136.923 237.77 144.716 233.12 153.305C228.553 150.791 223.693 146.517 219.042 140.861C222.645 140.945 226.248 141.029 229.852 141.154C227.338 137.132 224.824 133.11 222.31 129.088C226.667 130.093 230.983 131.099 235.34 132.104C233.664 127.579 231.988 123.054 230.354 118.529C235.047 122.049 239.74 125.568 244.39 129.088C244.893 124.688 245.438 120.247 245.94 115.848C245.94 115.848 249.334 122.175 251.345 129.968Z" fill="#F6EF00"/>
<path d="M354.834 168.136C354.834 168.136 353.242 167.885 350.477 167.382C333.927 164.24 275.228 151.084 263.413 120.205C263.036 119.283 262.743 118.32 262.491 117.356L267.812 114.256L269.404 113.334L276.737 109.06C276.737 109.06 277.114 109.94 278.035 111.448C278.161 111.7 278.329 111.951 278.496 112.203C277.281 112.789 276.066 113.376 274.935 113.962C276.887 116.501 279.732 119.983 283.449 123.863C283.449 123.863 290.081 130.78 296.747 135.833C305.918 142.784 324.814 149.835 349.266 152.676C349.224 152.215 349.182 151.796 349.14 151.335C349.392 151.377 349.685 151.419 349.937 151.419C351.235 151.587 352.576 151.712 353.959 151.838L354.336 158.5L354.461 160.595L354.834 168.136Z" fill="#31DB6A"/>
<path d="M267.896 114.758C274.977 126.616 284.488 136.755 296.219 144.087C307.909 151.377 321.106 155.609 334.598 157.997C341.134 159.128 347.712 160.05 354.332 160.511C355.672 160.595 355.672 158.5 354.332 158.416C329.402 156.698 303.509 150.246 284.865 132.733C278.915 127.16 273.887 120.708 269.698 113.711C269.027 112.538 267.226 113.585 267.896 114.758Z" fill="#F6EF00"/>
<path d="M349.22 152.634C340.589 152.844 317.629 152.299 296.177 136.713C285.66 129.087 278.957 120.331 274.893 113.92C276.024 113.334 277.239 112.747 278.454 112.161C283.859 120.959 302.839 145.595 349.094 151.251C349.136 151.754 349.178 152.173 349.22 152.634Z" fill="#31775F"/>
<path d="M277.699 184.351C277.322 187.954 279.878 191.18 283.481 191.557C284.152 191.641 284.822 191.599 285.451 191.474C283.23 192.982 280.507 193.736 277.658 193.443C271.331 192.731 266.764 187.074 267.434 180.706C268.147 174.379 273.845 169.812 280.171 170.483C286.456 171.153 290.981 176.767 290.395 183.01C289.64 180.664 287.545 178.862 284.906 178.569C281.345 178.192 278.118 180.79 277.699 184.351Z" fill="white"/>
<path d="M290.394 183.262C290.017 186.739 288.132 189.672 285.45 191.516C284.822 191.641 284.151 191.683 283.481 191.599C279.878 191.222 277.322 187.996 277.699 184.393C278.076 180.79 281.302 178.234 284.905 178.611C287.545 178.904 289.64 180.706 290.394 183.052C290.394 183.094 290.394 183.178 290.394 183.262Z" fill="#41214C"/>
<path d="M310.045 188.876C309.668 192.479 312.224 195.705 315.827 196.082C316.497 196.166 317.168 196.124 317.796 195.999C315.576 197.507 312.852 198.261 310.003 197.968C303.677 197.256 299.11 191.599 299.78 185.231C300.492 178.904 306.191 174.337 312.517 175.008C318.802 175.678 323.327 181.292 322.74 187.535C321.986 185.189 319.891 183.387 317.252 183.094C313.648 182.717 310.422 185.315 310.045 188.876Z" fill="white"/>
<path d="M322.698 187.745C322.321 191.222 320.435 194.155 317.754 195.999C317.125 196.125 316.455 196.166 315.785 196.083C312.181 195.706 309.626 192.479 310.003 188.876C310.38 185.273 313.606 182.717 317.209 183.094C319.849 183.388 321.944 185.189 322.698 187.535C322.74 187.619 322.74 187.703 322.698 187.745Z" fill="#41214C"/>
<path d="M292.364 165.246C288.132 161.894 283.9 158.5 279.669 155.148C278.621 154.31 277.113 155.777 278.202 156.615C282.434 159.966 286.665 163.36 290.897 166.712C291.903 167.55 293.411 166.084 292.364 165.246Z" fill="#41214C"/>
<path d="M306.19 169.142C311.804 168.304 317.377 167.424 322.991 166.586C324.332 166.377 323.745 164.366 322.446 164.575C316.832 165.413 311.26 166.293 305.645 167.131C304.305 167.299 304.891 169.352 306.19 169.142Z" fill="#41214C"/>
<path d="M267.184 133.613C267.184 133.613 262.156 134.702 262.617 137.174C263.12 139.604 267.184 133.613 267.184 133.613Z" fill="#FF4C4C"/>
<path d="M271.415 140.568C270.41 142.704 269.488 145.009 270.117 145.47C270.41 145.679 270.955 145.344 270.996 145.344C271.96 144.716 272.128 142.788 271.415 140.568Z" fill="#FF4C4C"/>
<path d="M266.22 145.931C265.298 146.978 262.91 149.827 263.622 150.833C263.79 151.084 264.125 151.168 264.376 151.168C265.759 150.917 266.136 146.643 266.22 145.931Z" fill="#FF4C4C"/>
<path d="M342.222 169.31C342.097 171.488 342.139 173.835 342.893 174.002C343.186 174.086 343.438 173.835 343.438 173.793C344.401 172.871 342.348 169.519 342.222 169.31Z" fill="#FF4C4C"/>
<path d="M337.195 172.242C335.813 174.84 335.017 176.893 335.687 177.48C335.896 177.689 336.273 177.647 336.483 177.563C337.949 176.935 337.237 172.41 337.195 172.242Z" fill="#FF4C4C"/>
<path d="M246.235 335.226C243.177 338.578 240.746 341.259 239.154 343.019C238.069 342.654 236.561 342.009 235.011 340.836C232.79 339.152 231.562 337.199 230.942 336.022C232.187 334.618 233.427 333.215 234.671 331.811C235.92 330.408 237.164 329.004 238.4 327.6C239.515 328.3 240.767 329.205 242.05 330.37C243.927 332.071 245.28 333.797 246.235 335.226Z" fill="#FF8B8B"/>
<path d="M332 342.725C331.363 343.341 330.106 344.397 328.213 345.013C325.95 345.75 324.006 345.47 323.118 345.281C322.657 340.714 322.154 336.147 321.693 331.622C322.246 331.174 323.872 329.976 326.285 329.842C329.034 329.691 330.965 331.019 331.497 331.413C331.749 335.896 331.916 339.709 332 342.725Z" fill="#FF8B8B"/>
<path d="M275.605 300.325C274.013 305.017 272.043 307.028 260.27 319.849C254.782 325.841 250.005 331.078 246.234 335.184L238.399 327.6C247.617 317.21 256.835 306.777 266.052 296.386C263.706 279.292 261.359 262.156 259.013 245.061C263.035 245.732 267.058 246.444 271.08 247.114C271.834 251.639 272.923 258.301 274.055 266.471C277.616 291.61 277.029 296.219 275.605 300.325Z" fill="#41214C"/>
<path d="M331.497 331.413C328.229 331.497 324.961 331.539 321.693 331.622C321.609 330.785 321.526 329.947 321.442 329.109C320.311 318.425 319.221 307.741 318.09 297.057C309.585 282.476 301.037 267.938 292.49 253.357C296.093 252.184 299.739 251.011 303.342 249.838C305.981 254.195 309.585 260.145 313.816 267.142C325.548 286.666 326.553 288.719 327.643 292.071C329.36 297.392 329.905 305.185 330.869 320.561C331.078 323.913 331.246 327.014 331.413 329.905C331.455 330.407 331.497 330.91 331.497 331.413Z" fill="#41214C"/>
<path d="M246.36 356.342C247.575 358.898 248.916 361.831 247.617 363.926C247.073 364.806 246.235 365.267 245.564 365.518C239.908 356.552 234.252 347.586 228.554 338.619C229.308 337.74 230.104 336.86 230.858 336.022L239.07 343.019C242.38 348.424 244.726 352.99 246.36 356.342Z" fill="#41214C"/>
<path d="M354.541 352.697C344.192 351.398 333.843 350.099 323.494 348.801C323.369 347.627 323.243 346.454 323.117 345.281C326.092 344.443 329.025 343.605 332 342.725C337.069 343.731 341.133 344.485 343.899 344.946C349.681 345.91 352.823 346.329 354.122 348.759C354.876 350.099 354.75 351.608 354.541 352.697Z" fill="#41214C"/>
<path d="M337.615 342.642C337.196 343.689 336.735 344.695 336.316 345.742C336.106 346.245 336.567 346.915 337.028 347.041C337.615 347.208 338.117 346.831 338.327 346.329C338.746 345.281 339.207 344.276 339.626 343.228C339.835 342.725 339.374 342.055 338.913 341.929C338.285 341.762 337.824 342.139 337.615 342.642Z" fill="#F6EF00"/>
<path d="M243.177 346.831C242.171 347.292 241.124 347.753 240.118 348.172C239.615 348.382 239.49 349.136 239.741 349.597C240.034 350.141 240.663 350.183 241.165 349.974C242.171 349.513 243.218 349.052 244.224 348.633C244.727 348.424 244.852 347.669 244.601 347.209C244.266 346.664 243.679 346.58 243.177 346.831Z" fill="#F6EF00"/>
<path d="M112.705 71.9387C112.462 71.7627 111.989 71.4276 111.365 71.0589C111.365 71.0589 109.496 69.9569 107.2 69.295C94.0147 65.4948 86.2259 66.0185 86.2259 66.0185C75.3157 66.7559 61.2212 75.7179 51.3374 91.2579C51.2872 91.3584 51.2411 91.4632 51.1908 91.5637C51.1112 91.5009 51.0316 91.4422 50.9478 91.3794C49.3976 86.3516 45.5011 71.6873 50.7802 68.0003C51.1154 67.7908 53.8807 65.8216 56.2269 66.9529C58.4056 68.0003 58.7408 70.9751 58.7827 71.3521C58.8665 70.598 60.4586 54.4254 69.2572 51.7858C69.8857 51.6182 75.2905 50.068 77.5949 52.917C78.6843 54.2578 78.6424 55.9756 78.5586 56.9811C78.5586 56.9811 90.5833 37.6243 100.429 36.9958C110.192 36.4092 103.362 56.8135 103.278 57.1906C111.658 48.4759 115.136 46.4229 115.136 46.4229C117.943 44.7469 121.672 42.652 125.568 43.8252C127.202 44.328 129.004 45.4173 129.758 46.6742C132.942 52.2048 118.529 66.492 112.705 71.9387Z" fill="#F6EF00"/>
<path d="M133.068 130.428C133.026 131.057 132.942 131.643 132.859 132.272C132.356 136.587 131.602 141.029 130.554 145.554C128.753 146.475 126.951 147.355 125.107 148.235C100.807 159.715 76.7153 164.91 57.1489 163.737H57.107C53.1267 163.36 49.3559 162.857 45.7946 162.187C39.3004 160.763 33.5185 158.458 28.7002 155.274C31.0046 139.478 34.8592 125.065 39.9289 112.622C43.155 104.703 46.842 97.5804 50.948 91.4214C51.0151 91.3502 51.0821 91.279 51.1491 91.2077C51.3042 91.6435 51.4592 92.0834 51.6142 92.5191C51.941 91.8613 52.4312 90.9145 53.0764 89.8083C53.0764 89.8083 56.4576 84.0222 61.5273 79.271C64.1166 76.8451 70.9962 70.4054 81.5335 68.101C95.7872 64.9838 107.477 71.4528 110.619 73.3341C110.858 73.1371 111.118 72.936 111.403 72.7349C111.83 72.4374 112.241 72.1902 112.622 71.9849C115.345 73.8703 117.817 76.0909 120.038 78.6467C127.621 87.4453 132.23 100.015 133.236 114.637C133.655 119.661 133.613 124.982 133.068 130.428Z" fill="#FF8B8B"/>
<path d="M125.065 86.5194C116.686 93.5582 106.588 97.3709 95.7368 98.6279C92.1755 99.0468 88.4466 99.0469 84.9271 99.9686C82.6227 100.597 80.5697 101.896 80.2346 104.452C79.7318 108.39 83.1255 112.412 85.7651 114.968C88.4047 117.566 91.6727 119.409 95.1921 120.541C102.482 122.845 110.443 122.175 117.817 120.624C123.306 119.451 128.711 117.775 133.822 115.471C135.037 114.926 133.99 113.125 132.775 113.669C122.761 118.11 110.611 121.295 99.6752 119.451C96.1139 118.865 92.6783 117.65 89.7035 115.555C86.6868 113.418 83.1255 109.815 82.4132 106.086C81.7429 102.776 84.8014 101.98 87.3991 101.603C91.0442 101.016 94.7732 100.89 98.4602 100.388C108.851 98.9212 118.487 94.8152 126.532 88.0277C127.579 87.1478 126.113 85.6814 125.065 86.5194Z" fill="#41214C"/>
<path d="M140.107 68.6707C137.635 73.489 135.205 78.3072 132.733 83.1255C132.105 84.3405 133.948 85.388 134.535 84.173C137.007 79.3547 139.437 74.5364 141.909 69.7182C142.537 68.545 140.736 67.4557 140.107 68.6707Z" fill="#FFEEF0"/>
<path d="M148.361 76.4219C144.087 79.7318 139.772 82.9999 135.498 86.3098C134.451 87.1059 135.498 88.9494 136.546 88.1114C140.819 84.8015 145.135 81.5334 149.408 78.2235C150.456 77.4274 149.408 75.5839 148.361 76.4219Z" fill="#FFEEF0"/>
<path d="M145.806 92.6783C142.538 92.3012 139.228 91.8822 135.96 91.5051C134.619 91.3375 134.619 93.4324 135.96 93.6C139.228 93.9771 142.538 94.3961 145.806 94.7732C147.105 94.9408 147.105 92.8459 145.806 92.6783Z" fill="#FFEEF0"/>
<path d="M112.705 71.9389C111.867 72.735 111.197 73.3216 110.82 73.6986C107.3 71.7294 95.4431 65.6123 81.2816 68.9223C71.6032 71.1848 65.1509 76.8829 62.0085 79.7319C56.6875 84.5083 53.4194 89.4523 51.534 92.8879C51.4502 92.6365 51.2826 92.0919 51.0312 91.3796C51.0731 91.3377 51.0731 91.2958 51.115 91.2539C61.003 76.3801 73.1534 67.0369 86.1418 65.3609C94.8984 64.2297 102.608 66.7436 107.175 68.7966C109.521 69.844 111.029 70.7658 111.448 71.0591C111.825 71.3524 112.286 71.6456 112.705 71.9389Z" fill="#F68201"/>
<path d="M122.761 75.7934C122.174 76.8408 121.336 77.7626 120.373 78.4749C118.78 79.648 116.727 80.2765 114.591 80.1089C109.856 79.7318 106.295 75.5839 106.672 70.8494C107.049 66.115 111.197 62.5536 115.931 62.9307C118.11 63.0983 120.037 64.062 121.42 65.5284C121.294 65.5284 121.21 65.4865 121.085 65.4865C118.152 65.277 115.554 67.4557 115.345 70.4305C115.135 73.3633 117.314 75.961 120.247 76.1705C121.127 76.2543 122.007 76.0867 122.761 75.7934Z" fill="white"/>
<path d="M91.2116 91.0023C90.6669 91.8403 89.9547 92.5944 89.1167 93.181C87.5246 94.3542 85.5135 94.9826 83.3348 94.815C78.6003 94.438 75.039 90.2901 75.4161 85.5975C75.7931 80.863 79.941 77.3017 84.6755 77.6788C87.0637 77.8882 89.1586 79.0195 90.5831 80.7373C90.3317 80.6954 90.0804 80.6535 89.7871 80.6116C86.8542 80.4021 84.2565 82.5808 84.047 85.5137C83.7957 88.4465 86.0162 91.0442 88.991 91.2537C89.829 91.3375 90.5412 91.2537 91.2116 91.0023Z" fill="white"/>
<path d="M92.6361 86.7708C92.6361 86.8127 92.6361 86.8546 92.6361 86.9384C92.5104 88.4467 92.0076 89.8293 91.2115 91.0025C90.5412 91.2539 89.787 91.3377 89.0328 91.2958C86.1 91.0863 83.8794 88.4886 84.0889 85.5558C84.2984 82.6229 86.896 80.4023 89.8289 80.6537C90.0803 80.6537 90.3736 80.6956 90.625 80.7794C92.0076 82.3715 92.8037 84.5083 92.6361 86.7708Z" fill="#41214C"/>
<path d="M123.85 72.0227C123.85 72.0646 123.85 72.1065 123.85 72.1903C123.766 73.4891 123.347 74.7041 122.761 75.7935C122.006 76.1287 121.169 76.2544 120.289 76.1706C117.356 75.9611 115.135 73.3634 115.387 70.4305C115.596 67.4977 118.194 65.2771 121.127 65.4866C121.252 65.4866 121.336 65.4866 121.462 65.5285C123.054 67.2044 124.018 69.5507 123.85 72.0227Z" fill="#41214C"/>
<path d="M168.011 95.9463C167.802 96.868 167.383 97.706 166.838 98.4183C166.377 98.9629 165.832 99.4657 165.204 99.8009C163.989 100.513 162.523 100.765 161.056 100.429C160.344 100.262 159.673 99.9685 159.087 99.5914C160.637 96.0301 162.187 92.5106 163.738 88.9912C166.754 89.7454 168.682 92.8458 168.011 95.9463Z" fill="#FF8B8B"/>
<path d="M165.874 134.576C172.62 122.384 173.081 107.552 165.204 95.7787C164.45 94.6475 162.648 95.695 163.402 96.8262C170.902 108.013 170.483 121.965 164.073 133.529C163.444 134.702 165.246 135.749 165.874 134.576Z" fill="#41214C"/>
<path d="M190.51 50.1101C185.692 58.1545 180.874 66.157 176.055 74.2014C173.919 74.6204 171.782 74.9975 169.645 75.4165C167.676 79.9414 165.665 84.4664 163.696 88.9914C163.654 88.9914 163.57 88.9495 163.528 88.9495C160.792 89.1171 158.454 90.9061 157.666 93.4074C156.615 96.7425 158.923 99.4533 159.045 99.5916C153.221 112.915 147.355 126.197 141.532 139.52C137.886 141.657 134.241 143.668 130.596 145.512C128.795 146.434 126.993 147.313 125.149 148.193L133.068 130.428L147.607 97.8319L159.59 71.0172C159.212 69.844 158.835 68.629 158.458 67.4558C163.486 57.6517 168.514 47.8476 173.542 38.0435C179.24 42.0657 184.854 46.0879 190.51 50.1101Z" fill="#31DB6A"/>
<path d="M163.696 88.9912C162.146 92.5106 160.596 96.072 159.045 99.5914C157.076 98.2925 155.987 95.8625 156.531 93.4324C157.244 90.2481 160.344 88.237 163.528 88.9493C163.57 88.9493 163.654 88.9912 163.696 88.9912Z" fill="#31775F"/>
<path d="M167.676 42.1912C169.319 42.1912 170.651 40.8594 170.651 39.2165C170.651 37.5735 169.319 36.2417 167.676 36.2417C166.033 36.2417 164.701 37.5735 164.701 39.2165C164.701 40.8594 166.033 42.1912 167.676 42.1912Z" fill="#31DB6A"/>
<path d="M162.9 51.5345C164.542 51.5345 165.874 50.2026 165.874 48.5597C165.874 46.9168 164.542 45.585 162.9 45.585C161.257 45.585 159.925 46.9168 159.925 48.5597C159.925 50.2026 161.257 51.5345 162.9 51.5345Z" fill="#31DB6A"/>
<path d="M158.123 60.8777C159.766 60.8777 161.098 59.5459 161.098 57.903C161.098 56.2601 159.766 54.9282 158.123 54.9282C156.48 54.9282 155.148 56.2601 155.148 57.903C155.148 59.5459 156.48 60.8777 158.123 60.8777Z" fill="#31DB6A"/>
<path d="M192.773 58.3218C194.416 58.3218 195.747 56.99 195.747 55.3471C195.747 53.7042 194.416 52.3723 192.773 52.3723C191.13 52.3723 189.798 53.7042 189.798 55.3471C189.798 56.99 191.13 58.3218 192.773 58.3218Z" fill="#31DB6A"/>
<path d="M187.535 67.3719C189.178 67.3719 190.51 66.04 190.51 64.3971C190.51 62.7542 189.178 61.4224 187.535 61.4224C185.892 61.4224 184.561 62.7542 184.561 64.3971C184.561 66.04 185.892 67.3719 187.535 67.3719Z" fill="#31DB6A"/>
<path d="M182.256 76.4637C183.899 76.4637 185.231 75.1318 185.231 73.4889C185.231 71.846 183.899 70.5142 182.256 70.5142C180.613 70.5142 179.281 71.846 179.281 73.4889C179.281 75.1318 180.613 76.4637 182.256 76.4637Z" fill="#31DB6A"/>
<path d="M170.148 119.2C177.019 126.909 183.89 134.618 190.761 142.327C191.097 141.741 191.432 141.154 191.767 140.568C182.005 138.473 172.243 136.378 162.48 134.241C160.05 133.696 157.578 133.194 155.148 132.649C154.184 132.439 153.053 132.021 152.048 131.979C151.168 131.937 150.665 132.481 149.953 132.942C148.654 133.822 147.355 134.66 146.014 135.498C143.333 137.174 140.61 138.808 137.886 140.358C132.356 143.501 126.658 146.392 120.834 148.989C99.9685 158.291 76.2124 164.785 53.2104 162.271C41.7722 161.014 29.9151 157.034 22.2059 148.067C17.4714 142.621 14.8737 135.666 14.4129 128.459C13.4073 113.166 20.53 98.2088 28.9096 85.8489C40.5153 68.7546 56.2689 54.5512 73.3214 43.0292C92.8459 29.8732 114.8 19.6501 137.928 14.79C155.022 11.2287 174.798 9.97171 190.929 17.8904C197.298 21.0328 202.828 25.7253 206.347 31.9262C210.16 38.6718 211.208 46.5067 210.412 54.0903C208.359 73.5728 195.957 91.3376 182.927 105.29C178.862 109.647 174.589 113.711 170.148 117.608C169.142 118.487 170.609 119.954 171.614 119.074C187.787 104.954 202.87 87.3992 209.699 66.7016C214.601 51.9116 214.099 34.8591 202.409 23.2953C190.552 11.7314 172.243 9.38514 156.279 10.265C133.403 11.6057 110.946 19.4826 90.7929 30.1665C70.8913 40.7667 52.3305 54.5931 37.4148 71.6036C26.1862 84.3825 16.0888 99.801 13.0302 116.812C11.8571 123.431 11.8152 130.345 13.7425 136.839C16.2145 145.218 21.8707 152.215 29.2866 156.824C38.9232 162.774 50.5708 164.743 61.7576 164.869C73.1957 164.994 84.6758 163.151 95.7368 160.176C108.222 156.824 120.289 151.964 131.769 146.056C137.593 143.082 143.249 139.814 148.738 136.252C149.408 135.833 150.037 135.414 150.707 134.995C150.833 134.911 151.964 133.906 151.545 134.032C151.629 133.99 151.796 134.115 151.88 134.115C152.425 134.074 153.137 134.409 153.682 134.492C165.204 136.964 176.768 139.478 188.289 141.95C189.295 142.16 190.259 142.369 191.264 142.579C192.312 142.788 192.982 141.615 192.27 140.819C185.398 133.11 178.527 125.401 171.656 117.691C170.734 116.728 169.268 118.194 170.148 119.2Z" fill="#FFD0D4"/>
</svg>
