<svg width="400" height="297" viewBox="0 0 400 297" fill="none" xmlns="http://www.w3.org/2000/svg">
<path d="M49.0101 21.4203C48.7773 25.8053 42.1417 25.8441 42.1417 21.4203C42.1417 16.9966 48.7385 17.0354 49.0101 21.4203C49.0877 22.6621 51.028 22.6621 50.9504 21.4203C50.7951 18.51 48.6221 16.0652 45.5953 16.0652C42.6849 16.0652 40.2402 18.51 40.2402 21.4203C40.2402 24.2531 42.5297 26.659 45.3625 26.7754C48.5057 26.8918 50.7951 24.4471 50.9504 21.4203C50.9892 20.1786 49.0489 20.1786 49.0101 21.4203Z" fill="#FFD0D4"/>
<path d="M67.6749 99.9224C67.5973 101.203 65.6958 101.203 65.6958 99.9224C65.657 98.6031 67.5973 98.6419 67.6749 99.9224C67.7525 101.164 69.6927 101.164 69.6151 99.9224C69.5375 98.3314 68.3346 96.9733 66.666 96.9733C65.075 96.9733 63.7556 98.3314 63.7168 99.9224C63.7168 101.475 64.9974 102.794 66.5495 102.833C68.257 102.91 69.4987 101.513 69.5763 99.9224C69.6539 98.6419 67.7137 98.6419 67.6749 99.9224Z" fill="#FFD0D4"/>
<path d="M246.682 48.0791C246.604 49.3597 244.703 49.3597 244.703 48.0791C244.664 46.7986 246.604 46.7986 246.682 48.0791C246.759 49.3209 248.7 49.3209 248.622 48.0791C248.544 46.4881 247.341 45.1299 245.673 45.1299C244.082 45.1299 242.762 46.4881 242.724 48.0791C242.724 49.6313 244.004 50.9507 245.556 50.9895C247.264 51.0671 248.506 49.6701 248.583 48.0791C248.661 46.8374 246.721 46.8374 246.682 48.0791Z" fill="#FFD0D4"/>
<path d="M257.663 206.17C257.625 207.062 256.228 207.101 256.228 206.17C256.266 205.239 257.625 205.239 257.663 206.17C257.741 207.412 259.681 207.412 259.604 206.17C259.526 204.734 258.439 203.531 256.965 203.531C255.529 203.531 254.326 204.734 254.326 206.17C254.326 207.567 255.49 208.77 256.887 208.809C258.439 208.886 259.565 207.645 259.642 206.17C259.681 204.889 257.741 204.889 257.663 206.17Z" fill="#FFD0D4"/>
<path d="M42.4516 233.101C42.3352 235.506 38.6876 235.506 38.6876 233.101C38.7264 230.656 42.3352 230.695 42.4516 233.101C42.5292 234.342 44.4695 234.342 44.3919 233.101C44.2755 231.044 42.7233 229.298 40.589 229.298C38.5323 229.298 36.7861 231.044 36.7861 233.101C36.7861 235.118 38.4159 236.826 40.4338 236.903C42.6457 236.981 44.2755 235.235 44.3919 233.101C44.4695 231.859 42.5292 231.859 42.4516 233.101Z" fill="#FFD0D4"/>
<path d="M387.117 111.021C387 113.427 383.353 113.427 383.353 111.021C383.353 108.615 387 108.615 387.117 111.021C387.194 112.262 389.135 112.262 389.057 111.021C388.94 108.964 387.388 107.218 385.254 107.218C383.197 107.218 381.451 108.964 381.451 111.021C381.451 113.039 383.081 114.746 385.099 114.824C387.311 114.901 388.94 113.155 389.057 111.021C389.135 109.779 387.194 109.779 387.117 111.021Z" fill="#FFD0D4"/>
<path d="M19.1696 79.4723C20.0055 79.4723 20.683 78.7947 20.683 77.9589C20.683 77.1231 20.0055 76.4455 19.1696 76.4455C18.3338 76.4455 17.6562 77.1231 17.6562 77.9589C17.6562 78.7947 18.3338 79.4723 19.1696 79.4723Z" fill="#FFD0D4"/>
<path d="M260.186 6.79087C261.022 6.79087 261.7 6.11331 261.7 5.27749C261.7 4.44167 261.022 3.7641 260.186 3.7641C259.35 3.7641 258.673 4.44167 258.673 5.27749C258.673 6.11331 259.35 6.79087 260.186 6.79087Z" fill="#FFD0D4"/>
<path d="M181.722 23.3606C182.558 23.3606 183.236 22.683 183.236 21.8472C183.236 21.0114 182.558 20.3338 181.722 20.3338C180.887 20.3338 180.209 21.0114 180.209 21.8472C180.209 22.683 180.887 23.3606 181.722 23.3606Z" fill="#FFD0D4"/>
<path d="M282.071 152.813C284.107 152.813 285.758 151.163 285.758 149.127C285.758 147.091 284.107 145.441 282.071 145.441C280.035 145.441 278.385 147.091 278.385 149.127C278.385 151.163 280.035 152.813 282.071 152.813Z" fill="#FFD0D4"/>
<path d="M136.166 193.132C137.002 193.132 137.679 192.454 137.679 191.618C137.679 190.782 137.002 190.105 136.166 190.105C135.33 190.105 134.652 190.782 134.652 191.618C134.652 192.454 135.33 193.132 136.166 193.132Z" fill="#FFD0D4"/>
<path d="M12.6888 153.318C14.5319 153.318 16.026 151.824 16.026 149.981C16.026 148.138 14.5319 146.643 12.6888 146.643C10.8457 146.643 9.35156 148.138 9.35156 149.981C9.35156 151.824 10.8457 153.318 12.6888 153.318Z" fill="#FFD0D4"/>
<path d="M389.756 204.463C390.677 204.463 391.424 203.716 391.424 202.794C391.424 201.872 390.677 201.125 389.756 201.125C388.834 201.125 388.087 201.872 388.087 202.794C388.087 203.716 388.834 204.463 389.756 204.463Z" fill="#FFD0D4"/>
<path d="M141.637 269.81C143.052 269.81 144.198 268.663 144.198 267.249C144.198 265.834 143.052 264.688 141.637 264.688C140.223 264.688 139.076 265.834 139.076 267.249C139.076 268.663 140.223 269.81 141.637 269.81Z" fill="#FFD0D4"/>
<path d="M153.318 15.9099C153.318 15.9099 153.279 15.9099 153.318 15.9099C153.085 15.8323 152.813 15.8323 152.542 15.9875C141.831 21.7306 131.083 27.4738 120.372 33.2557C115.561 35.8556 110.749 38.4167 105.937 41.0166C104.812 41.5987 103.725 42.2196 102.6 42.8017C101.94 43.1509 101.242 43.3837 100.931 44.0434C100.892 44.0822 100.931 44.1598 100.892 44.1986C100.543 45.1299 100.427 46.2553 100.233 47.2254C99.7282 49.4373 99.2626 51.6492 98.7581 53.861C97.1283 61.3116 95.4597 68.7233 93.8299 76.1738C91.5404 86.5735 89.2509 96.9732 86.9227 107.373C84.2063 119.674 81.49 131.975 78.7737 144.237C76.7946 153.201 74.8156 162.165 72.8365 171.129C72.6425 172.099 72.4097 173.108 72.1768 174.078C71.5172 177.027 70.8963 179.977 70.2366 182.926C69.6933 185.448 69.1113 187.932 68.568 190.454C69.0336 191.075 69.5769 191.657 70.1978 192.123C71.6724 185.526 73.1081 178.929 74.5827 172.332C74.7768 171.478 74.9708 170.625 75.1648 169.771C76.2513 164.804 77.3379 159.876 78.4244 154.948C81.1796 142.414 83.9347 129.918 86.7286 117.384C89.1733 106.364 91.5792 95.3822 94.0239 84.3616C95.8478 76.0574 97.6716 67.792 99.4954 59.4877C100.504 54.9864 101.474 50.485 102.483 46.0225C102.561 45.712 102.561 45.1688 102.755 44.8583V44.8195C102.949 44.8583 103.725 44.4703 103.842 44.4315C104.967 43.8494 106.092 43.2285 107.179 42.6464C117.384 37.175 127.59 31.6647 137.796 26.1932C142.414 23.7097 147.031 21.2262 151.649 18.7815C151.261 20.6053 150.834 22.4679 150.446 24.2918C149.01 30.9274 147.536 37.5242 146.1 44.1598C143.966 53.9386 141.831 63.6786 139.658 73.4575C138.184 80.2483 136.67 87.0003 135.196 93.7912C134.07 98.9134 132.945 103.997 131.82 109.08C128.948 122.08 126.116 135.079 123.244 148.04C123.089 148.661 122.972 149.243 122.856 149.864C121.692 155.142 120.528 160.458 119.363 165.735C119.208 166.395 119.092 167.016 118.937 167.676C117.501 174.156 116.065 180.675 114.668 187.156C111.991 199.34 109.274 211.564 106.597 223.787C104.346 234.109 102.057 244.393 99.767 254.715C98.1372 262.088 96.5074 269.461 94.8776 276.833C94.3732 279.162 93.8687 281.451 93.3255 283.78C93.0926 284.827 92.6658 286.03 92.5494 287.117H49.2432C49.7089 284.905 50.2133 282.732 50.7178 280.559L55.2967 259.798C57.5086 249.786 59.7205 239.775 61.9324 229.763C64.5323 217.928 67.1322 206.131 69.7709 194.296C69.1889 193.869 68.6068 193.403 68.1023 192.899C66.0845 202.057 64.0666 211.176 62.0488 220.334C59.6817 231.044 57.3146 241.793 54.9475 252.542C53.2401 260.341 51.4939 268.141 49.7865 275.98C48.9328 279.744 48.079 283.547 47.303 287.311C47.2641 287.466 47.2253 287.66 47.1865 287.815C47.0701 288.436 47.4582 289.057 48.1179 289.057H93.4031C93.7911 289.057 94.2568 288.747 94.3344 288.358C94.8776 285.953 95.3821 283.547 95.9254 281.141C97.3612 274.583 98.8357 268.025 100.272 261.467C102.406 251.766 104.54 242.064 106.674 232.363C109.274 220.528 111.913 208.692 114.513 196.857C116.647 187.078 118.82 177.299 120.954 167.559C121.11 166.899 121.265 166.24 121.381 165.58C121.963 163.019 122.507 160.497 123.05 157.974C123.632 155.258 124.253 152.542 124.835 149.825C127.124 139.426 129.414 129.026 131.703 118.665C133.76 109.274 135.817 99.9223 137.873 90.5704C138.533 87.66 139.154 84.7497 139.814 81.8393C142.103 71.5172 144.354 61.1563 146.643 50.8343C148.273 43.3837 149.903 35.9332 151.533 28.4827C152.309 24.9514 153.24 21.3814 153.861 17.8114C153.861 17.6949 153.9 17.5785 153.939 17.4621C153.977 17.3457 154.016 17.2293 154.016 17.1129V17.0741C154.055 16.2592 153.706 15.9875 153.318 15.9099Z" fill="#F8D3D4"/>
<path d="M126.388 57.3147H112.845C112.418 57.3147 111.991 57.6251 111.913 58.0132C103.959 94.1405 95.9647 130.268 88.0097 166.395L87.5829 168.335C84.983 180.054 82.4218 191.773 79.8219 203.492C76.834 216.997 73.8848 230.462 70.8968 243.966C62.7866 247.73 59.8763 258.518 67.1716 264.765C73.3803 270.12 84.4785 269.111 88.0485 261.079C90.144 256.345 89.1739 251.222 85.7979 247.419C91.6962 220.605 97.5945 193.83 103.454 167.016C103.609 166.356 103.726 165.735 103.881 165.076C108.654 143.423 113.388 121.808 118.161 100.155C121.227 86.2631 124.253 72.371 127.319 58.4788C127.435 57.9356 127.009 57.3147 126.388 57.3147ZM92.9379 205.782C89.8724 219.674 86.8456 233.566 83.78 247.458C83.7024 247.846 83.8188 248.157 84.0516 248.39H84.0128C87.1948 251.727 88.2038 256.616 85.9919 260.768C83.78 264.92 78.5802 266.899 74.1176 266.046C69.7327 265.231 65.7358 261.855 64.9209 257.354C64.0284 252.348 67.288 247.536 71.8281 245.634C71.8669 245.634 71.8669 245.596 71.9057 245.596C72.2162 245.557 72.5266 245.324 72.6042 244.897C83.3144 196.391 93.9857 147.924 104.696 99.4179C107.645 86.0303 110.594 72.6038 113.582 59.2161H125.146C114.436 108.11 103.687 156.927 92.9379 205.782Z" fill="#F8D3D4"/>
<path d="M81.4124 248.273L88.8629 215.987H82.2661L75.5141 247.303C72.4485 247.963 69.6157 250.174 68.8396 253.24C67.9471 256.771 69.8486 261.156 73.8843 262.67C77.7259 264.105 82.0333 262.359 83.9347 258.828C85.9526 254.986 84.5168 250.33 81.4124 248.273Z" fill="#F6EF00"/>
<path d="M336.826 71.6725C336.632 69.577 335.933 64.2608 334.109 59.7982C331.975 54.5984 330.035 54.6372 328.25 50.6403C326.853 47.4583 325.844 42.3748 328.483 34.4199C302.212 36.0885 293.287 61.3116 291.114 69.8487C290.26 69.8098 289.367 69.771 288.514 69.7322V79.0454H338.921C338.921 76.6007 338.921 74.1948 338.921 71.7501C338.223 71.7113 337.524 71.6725 336.826 71.6725Z" fill="#FBEEEF"/>
<path d="M331.47 20.101C334.575 21.3428 332.208 27.3963 332.208 27.3963C332.208 27.3963 337.912 20.101 340.124 21.9637C342.336 23.8263 335.661 29.0261 335.661 29.0261C335.661 29.0261 340.745 26.1934 342.103 28.5217C343.461 30.8888 336.399 32.2469 336.399 32.2469C336.399 32.2469 340.007 32.9842 340.007 34.1096C340.007 34.5364 339.542 34.8469 339.348 34.9633C337.524 36.1662 333.294 35.4289 330.966 32.9066C327.124 28.7933 329.064 20.5667 330.966 20.101C331.082 20.0622 331.276 20.0234 331.47 20.101Z" fill="#FFD0D4"/>
<path d="M372.604 99.6508C371.246 92.7435 369.926 85.7975 368.568 78.8902C368.335 77.6485 366.473 78.1917 366.705 79.3947C367.831 85.2542 368.995 91.1137 370.12 96.9733C366.667 93.5196 363.213 90.066 359.798 86.6512C359.759 86.6124 359.72 86.5736 359.643 86.5348C359.488 86.4184 359.294 86.3019 359.022 86.3019C329.414 86.3019 299.767 86.3019 270.159 86.3019C270.159 78.2693 270.159 70.2367 270.159 62.243C270.159 48.9329 270.159 35.6229 270.159 22.3128C270.159 19.5965 270.159 16.8801 270.159 14.125C298.37 14.125 326.581 14.125 354.792 14.125C356.034 14.125 356.034 12.1848 354.792 12.1848C326.271 12.1848 297.749 12.1848 269.189 12.1848C268.684 12.1848 268.219 12.6504 268.219 13.1549C268.219 21.4979 268.219 29.8409 268.219 38.184C268.219 51.494 268.219 64.8041 268.219 78.1141C268.219 81.1797 268.219 84.2065 268.219 87.2721C268.219 87.7765 268.684 88.2422 269.189 88.2422C299.03 88.2422 328.832 88.2422 358.673 88.2422C362.786 92.3555 366.899 96.4688 371.013 100.582C371.711 101.319 372.759 100.543 372.604 99.6508Z" fill="#F8D3D4"/>
<path d="M319.751 57.5476C318.665 57.5476 317.539 57.5476 316.453 57.5476C317.229 56.7715 318.005 55.9954 318.781 55.2193C319.674 54.3268 318.277 52.9686 317.423 53.8611C316.647 54.6372 315.871 55.4133 315.095 56.1894C315.095 55.0641 315.095 53.9387 315.095 52.8134C315.095 51.5716 313.154 51.5716 313.154 52.8134C313.154 53.9387 313.154 55.0641 313.154 56.1894C312.378 55.4133 311.602 54.6372 310.826 53.8611C309.934 52.9686 308.575 54.3656 309.468 55.2193C310.244 55.9954 311.02 56.7715 311.796 57.5476C310.71 57.5476 309.584 57.5476 308.498 57.5476C307.256 57.5476 307.256 59.4878 308.498 59.4878C309.584 59.4878 310.71 59.4878 311.796 59.4878C311.02 60.2639 310.244 61.04 309.468 61.8161C308.575 62.7086 309.972 64.0668 310.826 63.1743C311.602 62.3982 312.378 61.6221 313.154 60.846C313.154 61.9325 313.154 62.9803 313.154 64.0668C313.154 65.3085 315.095 65.3085 315.095 64.0668C315.095 62.9803 315.095 61.9325 315.095 60.846C315.871 61.6221 316.647 62.3982 317.423 63.1743C318.315 64.0668 319.674 62.6698 318.781 61.8161C318.005 61.04 317.229 60.2639 316.453 59.4878C317.539 59.4878 318.665 59.4878 319.751 59.4878C320.993 59.4878 320.993 57.5476 319.751 57.5476Z" fill="#FFD0D4"/>
<path d="M383.353 274.156C381.995 267.249 380.675 260.303 379.317 253.395C379.084 252.154 377.222 252.697 377.454 253.9C378.58 259.759 379.744 265.619 380.869 271.478C377.416 268.025 373.962 264.571 370.547 261.156C370.353 260.962 370.081 260.885 369.887 260.885C369.849 260.885 369.849 260.885 369.81 260.885C358.712 260.885 347.613 260.885 336.515 260.885C318.898 260.885 301.281 260.885 283.702 260.885C279.977 260.885 276.251 260.885 272.526 260.885C272.526 242.452 272.526 223.981 272.526 205.549C272.526 203.182 272.526 200.854 272.526 198.487C302.251 198.487 331.975 198.487 361.738 198.487C362.98 198.487 362.98 196.546 361.738 196.546C331.665 196.546 301.63 196.546 271.556 196.546C271.052 196.546 270.586 196.973 270.586 197.517C270.586 216.298 270.586 235.08 270.586 253.822C270.586 256.5 270.586 259.177 270.586 261.855C270.586 262.359 271.052 262.825 271.556 262.825C282.654 262.825 293.752 262.825 304.851 262.825C322.468 262.825 340.085 262.825 357.703 262.825C361.622 262.825 365.58 262.825 369.499 262.825C373.613 266.938 377.687 271.013 381.801 275.126C382.421 275.825 383.508 275.087 383.353 274.156Z" fill="#F8D3D4"/>
<path d="M291.54 238.029C299.068 227.319 324.059 239.038 332.518 229.453C334.808 226.853 336.903 221.576 333.139 209.43H346.178L349.321 242.996H339.93H335.351H318.587H314.008H289.678C289.833 241.948 290.182 239.93 291.54 238.029Z" fill="#FBEEEF"/>
<path d="M294.141 253.24C299.612 254.094 343.19 253.395 351.766 253.279L350.757 248.118C349.205 248.234 346.954 248.428 344.276 248.584L340.008 242.957H335.429L337.02 248.933C330.928 249.205 323.826 249.36 316.997 249.166L318.665 242.957H314.086L309.624 248.778C300.233 248.04 292.317 246.372 289.717 242.957C289.717 242.957 288.048 252.27 294.141 253.24Z" fill="#FFD0D4"/>
<path d="M340.046 215.677C338.339 215.677 336.593 215.677 334.885 215.677C333.644 215.677 333.644 217.617 334.885 217.617C336.593 217.617 338.339 217.617 340.046 217.617C341.288 217.617 341.288 215.677 340.046 215.677Z" fill="#FFD0D4"/>
<path d="M340.046 220.334C338.339 220.334 336.593 220.334 334.885 220.334C333.644 220.334 333.644 222.274 334.885 222.274C336.593 222.274 338.339 222.274 340.046 222.274C341.288 222.274 341.288 220.334 340.046 220.334Z" fill="#FFD0D4"/>
<path d="M358.906 141.599C358.829 141.444 358.48 140.706 357.665 140.241C355.375 138.882 351.689 140.978 349.089 142.879L348.778 138.921H318.821C318.821 138.921 315.135 167.676 315.6 167.21C316.066 166.744 351.068 167.21 351.068 167.21L350.214 156.733C353.784 153.434 361.08 145.945 358.906 141.599ZM349.943 153.357L349.477 147.73C352.232 145.208 355.996 142.142 357.005 143.384C358.247 144.82 352.737 150.563 349.943 153.357Z" fill="#FBEEEF"/>
<path d="M379.395 185.332C378.037 178.425 376.717 171.478 375.359 164.571C375.126 163.329 373.264 163.873 373.497 165.076C374.622 170.935 375.786 176.795 376.911 182.654C373.458 179.201 370.004 175.747 366.589 172.332C366.395 172.138 366.201 172.061 366.007 172.061C365.969 172.061 365.891 172.061 365.852 172.061C346.838 172.061 327.785 172.061 308.77 172.061C306.364 172.061 303.958 172.061 301.553 172.061C301.553 156.655 301.553 141.288 301.553 125.883C301.553 123.981 301.553 122.08 301.553 120.179C320.101 120.179 338.65 120.179 357.16 120.179C358.402 120.179 358.402 118.238 357.16 118.238C338.301 118.238 319.442 118.238 300.582 118.238C300.078 118.238 299.612 118.665 299.612 119.208C299.612 134.924 299.612 150.64 299.612 166.356C299.612 168.568 299.612 170.819 299.612 173.031C299.612 173.535 300.078 174.001 300.582 174.001C319.597 174.001 338.65 174.001 357.664 174.001C360.264 174.001 362.864 174.001 365.503 174.001C369.616 178.114 373.691 182.189 377.804 186.302C378.502 187 379.55 186.263 379.395 185.332Z" fill="#F8D3D4"/>
<path d="M327.242 135.235C325.301 132.907 328.871 132.13 329.298 130.074C329.648 128.444 328.445 126.969 327.397 125.883C326.543 124.99 325.146 126.348 326.039 127.241C326.776 128.017 327.785 128.948 327.203 130.035C326.815 130.811 325.767 131.199 325.224 131.936C324.021 133.527 324.758 135.235 325.922 136.593C326.66 137.563 328.018 136.205 327.242 135.235Z" fill="#FFD0D4"/>
<path d="M334.42 135.235C332.48 132.907 336.05 132.13 336.477 130.074C336.826 128.444 335.623 126.969 334.576 125.883C333.722 124.99 332.325 126.348 333.217 127.241C333.955 128.017 334.964 128.948 334.382 130.035C333.994 130.811 332.946 131.199 332.403 131.936C331.2 133.527 331.937 135.235 333.101 136.593C333.838 137.563 335.196 136.205 334.42 135.235Z" fill="#FFD0D4"/>
<path d="M340.396 135.235C338.456 132.907 342.026 132.13 342.453 130.074C342.802 128.444 341.599 126.969 340.551 125.883C339.697 124.99 338.301 126.348 339.193 127.241C339.93 128.017 340.939 128.948 340.357 130.035C339.969 130.811 338.921 131.199 338.378 131.936C337.175 133.527 337.912 135.235 339.077 136.593C339.814 137.563 341.172 136.205 340.396 135.235Z" fill="#FFD0D4"/>
<path d="M131.82 108.964C128.948 121.963 126.115 134.963 123.244 147.924C123.089 148.545 122.972 149.127 122.856 149.748L114.823 150.407C116.375 128.987 123.516 108.847 135.235 93.636C134.07 98.7582 132.945 103.842 131.82 108.964Z" fill="#EF9C9C"/>
<path d="M233.527 140.629V135.933L209.08 138.029V142.646L192.006 144.043V135.933L165.231 138.262V146.255L124.874 149.593C127.164 139.193 129.453 128.793 131.742 118.432C133.799 109.041 135.856 99.6895 137.912 90.3376C144.432 82.7706 152.154 76.6007 160.962 72.4485C162.786 71.5948 164.61 70.8187 166.512 70.1591C177.187 68.2227 190.613 67.0314 205.875 68.6224C211.075 69.1657 215.93 69.9728 220.411 70.9352C221.459 71.2922 222.507 71.6686 223.555 72.0605C249.748 81.9169 274.583 103.609 288.63 136.088L233.527 140.629Z" fill="#EF9C9C"/>
<path d="M186.534 93.015C186.534 96.7403 182.227 99.8059 176.911 99.8059C171.594 99.8059 167.287 96.7791 167.287 93.015C167.287 89.251 171.594 86.2242 176.911 86.2242C177.997 86.2242 179.045 86.3406 180.015 86.5734C178.541 87.2331 177.532 88.7077 177.532 90.4151C177.532 92.7434 179.394 94.606 181.722 94.606C183.973 94.606 185.797 92.821 185.913 90.6091C186.34 91.3464 186.534 92.1613 186.534 93.015Z" fill="white"/>
<path d="M185.913 90.5704C185.835 92.8211 183.973 94.5673 181.722 94.5673C179.394 94.5673 177.531 92.7047 177.531 90.3764C177.531 88.669 178.54 87.1944 180.015 86.5347C182.731 87.2332 184.904 88.7078 185.913 90.5704Z" fill="#41214C"/>
<path d="M229.957 91.4241C229.957 95.1494 225.65 98.2149 220.334 98.2149C215.017 98.2149 210.71 95.1882 210.71 91.4241C210.71 87.6988 215.017 84.6332 220.334 84.6332C221.42 84.6332 222.468 84.7497 223.438 84.9825C221.963 85.6422 220.954 87.1167 220.954 88.7854C220.954 91.1136 222.817 92.9763 225.145 92.9763C227.396 92.9763 229.22 91.1913 229.336 88.9406C229.724 89.7555 229.957 90.5704 229.957 91.4241Z" fill="white"/>
<path d="M229.297 88.9794C229.219 91.2301 227.357 93.0151 225.106 93.0151C222.778 93.0151 220.915 91.1525 220.915 88.8242C220.915 87.1168 221.924 85.6422 223.399 85.0213C226.154 85.6422 228.288 87.1168 229.297 88.9794Z" fill="#41214C"/>
<path d="M191.308 98.4478C195.343 102.833 201.513 103.764 206.907 101.436C208.032 100.931 207.062 99.2627 205.937 99.7672C201.358 101.785 196.119 100.776 192.704 97.0897C191.851 96.1583 190.493 97.5553 191.308 98.4478Z" fill="#41214C"/>
<path d="M171.401 80.7139C175.398 79.0065 179.433 77.2603 183.43 75.5141C184.595 75.0096 183.586 73.341 182.46 73.8455C178.463 75.5529 174.428 77.2991 170.431 79.0453C169.267 79.5498 170.237 81.2184 171.401 80.7139Z" fill="#41214C"/>
<path d="M216.259 77.8424C220.606 78.2692 224.952 78.7349 229.298 79.2005C230.54 79.3169 230.54 77.3767 229.298 77.2603C224.952 76.8334 220.606 76.3678 216.259 75.9021C215.018 75.7857 215.018 77.7259 216.259 77.8424Z" fill="#41214C"/>
<path d="M246.682 239.348C249.661 239.348 252.076 236.933 252.076 233.954C252.076 230.975 249.661 228.56 246.682 228.56C243.703 228.56 241.288 230.975 241.288 233.954C241.288 236.933 243.703 239.348 246.682 239.348Z" fill="#EF9C9C"/>
<path d="M119.324 165.658C119.169 166.317 119.053 166.938 118.897 167.598C113.775 167.986 108.459 167.21 103.453 167.094C103.608 166.434 103.725 165.813 103.88 165.153C108.886 165.309 114.241 166.162 119.324 165.658Z" fill="#41214C"/>
<path d="M127.434 165.386C125.339 166.395 123.166 167.016 120.915 167.326C121.07 166.667 121.225 166.007 121.342 165.347C122.506 165.153 123.67 164.843 124.757 164.416C131.742 161.816 136.67 155.336 134.613 147.691C134.303 146.488 136.165 145.984 136.476 147.187C138.61 155.064 134.419 161.933 127.434 165.386Z" fill="#41214C"/>
<path d="M87.9707 166.395L87.5438 168.335C83.1589 168.529 78.4247 169.849 74.583 172.293C74.777 171.44 74.9711 170.586 75.1651 169.732C79.162 167.598 83.7797 166.511 87.9707 166.395Z" fill="#41214C"/>
<path d="M80.3255 202.406C83.3045 202.406 85.7194 199.991 85.7194 197.012C85.7194 194.033 83.3045 191.618 80.3255 191.618C77.3466 191.618 74.9316 194.033 74.9316 197.012C74.9316 199.991 77.3466 202.406 80.3255 202.406Z" fill="#EF9C9C"/>
<path d="M77.5318 194.917C76.8333 194.878 76.1737 194.761 75.514 194.606C73.5737 194.179 71.7499 193.364 70.2365 192.123C69.6157 191.618 69.0724 191.075 68.6067 190.454C68.2963 190.027 67.9859 189.562 67.753 189.057C65.8904 185.293 67.0933 180.52 69.3828 177.183C70.1977 176.019 71.129 175.01 72.2156 174.078C72.4484 173.108 72.6424 172.099 72.8753 171.129C70.1977 172.953 67.947 175.32 66.5889 178.192C64.7262 182.111 64.1054 186.845 66.4725 190.726C66.9381 191.502 67.4814 192.2 68.1023 192.821C68.6067 193.326 69.1888 193.83 69.7709 194.218C71.3231 195.305 73.1081 196.042 74.9707 196.469C75.8244 196.663 76.6781 196.779 77.5706 196.857C78.7736 196.934 78.7736 194.994 77.5318 194.917Z" fill="#41214C"/>
<path d="M243.694 137.097C243.927 147.769 244.16 158.44 244.392 169.073C244.742 186.147 245.13 203.221 245.479 220.295C245.557 224.175 245.634 228.095 245.712 231.975C245.751 233.217 247.691 233.217 247.652 231.975C247.419 221.304 247.186 210.633 246.954 199.961C246.604 182.887 246.216 165.813 245.867 148.739C245.789 144.858 245.712 140.939 245.634 137.059C245.595 135.817 243.655 135.817 243.694 137.097Z" fill="#41214C"/>
<path d="M184.711 274.816C184.556 275.941 184.4 277.105 184.284 278.23C183.275 278.529 181.952 278.82 180.38 278.913C178.82 279.006 177.478 278.871 176.445 278.696C176.445 278.269 176.484 277.804 176.523 277.377C178.351 276.317 180.698 275.32 183.516 274.936C183.923 274.882 184.323 274.843 184.711 274.816Z" fill="#FF8B8B"/>
<path d="M225.882 268.917C225.766 271.866 225.649 274.816 225.533 277.765C224.722 278.184 223.484 278.708 221.897 278.96C220.162 279.235 218.707 279.072 217.772 278.89C217.764 277.198 217.772 275.491 217.772 273.768C217.772 272.448 217.772 271.168 217.811 269.849C219.247 269.212 221.447 268.506 224.109 268.677C224.749 268.719 225.339 268.805 225.882 268.917Z" fill="#FF8B8B"/>
<path d="M212.223 285.448C210.205 282.654 206.13 282.421 203.297 282.305C199.456 282.15 195.536 282.033 191.462 281.956C192.083 281.257 192.665 280.559 193.286 279.821C194.101 278.89 192.704 277.493 191.928 278.463C191.501 278.968 191.035 279.511 190.608 280.015C190.802 279.278 190.958 278.541 191.152 277.804C191.462 276.601 189.561 276.057 189.289 277.299C188.901 278.851 188.552 280.365 188.164 281.917C186.728 281.917 185.253 281.878 183.74 281.878L184.283 278.23C182.071 278.347 178.462 278.541 176.445 278.696L175.591 286.379H212.843C212.649 286.069 212.455 285.759 212.223 285.448Z" fill="#41214C"/>
<path d="M254.171 285.215C252.192 282.577 248.35 282.383 245.905 282.305C241.637 282.189 237.058 282.033 232.091 281.956C232.673 281.257 233.255 280.598 233.837 279.899C234.652 278.968 233.255 277.571 232.479 278.541C231.936 279.162 231.392 279.783 230.888 280.442C231.043 279.783 231.198 279.084 231.392 278.425C231.703 277.222 229.801 276.678 229.53 277.92C229.219 279.278 228.87 280.598 228.56 281.956C227.551 281.956 226.503 281.917 225.455 281.917C225.494 280.559 225.572 279.201 225.611 277.804L217.85 278.929C217.85 281.413 217.85 283.935 217.85 286.418H254.908C254.675 285.991 254.481 285.603 254.171 285.215Z" fill="#41214C"/>
<path d="M192.006 144.043V272.604L184.71 274.816L183.896 275.087L176.484 277.377L175.669 277.61L165.23 280.792V146.255C168.331 145.557 171.75 144.948 175.459 144.521C181.626 143.814 187.21 143.772 192.006 144.043Z" fill="#6CCF6A"/>
<path d="M192.006 135.933V144.043L165.23 146.255V138.262L192.006 135.933Z" fill="#657F5F"/>
<path d="M233.527 140.629V268.064L225.882 268.917L224.912 269.034L217.85 269.849L216.802 269.965L209.041 270.858V142.647C212.2 141.801 215.975 141.024 220.275 140.613C225.358 140.128 229.852 140.268 233.527 140.629Z" fill="#6CCF6A"/>
<path d="M233.527 135.933V140.629L209.041 142.646V138.029L233.527 135.933Z" fill="#657F5F"/>
<path d="M220.411 70.8964C206.275 67.9705 189.981 66.6705 172.317 69.1696C170.345 69.449 168.409 69.7672 166.511 70.1203L152.192 49.2821L188.552 62.6698L175.359 41.0555L201.63 60.5743L192.705 27.7454L220.411 70.8964Z" fill="#F7E732"/>
<path d="M221.537 72.6425C203.143 67.1711 184.478 67.2875 168.568 73.1082L166.512 70.1202C167.87 69.6158 169.306 69.1501 170.703 68.762C186.031 64.3383 203.415 65.1532 220.412 70.8963L221.537 72.6425Z" fill="#E88D2D"/>
</svg>
