<svg width="400" height="320" viewBox="0 0 400 320" fill="none" xmlns="http://www.w3.org/2000/svg">
<path d="M196.594 236.156C193.344 236.25 193.938 232.469 195.125 230.719C196.282 229 198.657 227.531 200.813 228.063C202.032 228.375 203.532 230.063 202.407 231.281C201.875 231.844 200.75 232.125 200.094 232.594C199.25 233.188 198.5 233.906 197.875 234.75C197.438 235.313 197.125 236.031 196.375 236.188C195.407 236.406 195.813 237.906 196.782 237.688C198.125 237.406 198.657 236.156 199.5 235.188C200.219 234.375 201.094 233.719 202.063 233.219C202.625 232.938 203.219 232.719 203.657 232.25C205.938 229.844 202.782 226.5 200.219 226.406C197.125 226.281 194.282 228.406 193.094 231.156C191.875 233.938 193 237.781 196.594 237.688C197.594 237.688 197.625 236.125 196.594 236.156Z" fill="#FFEEF0"/>
<path d="M35.0622 120.313C39.0622 121.313 36.5622 125.875 34.4684 127.344C32.6247 128.656 29.5309 129.313 27.5309 127.906C26.4372 127.156 25.5622 124.875 26.9059 123.906C27.5934 123.438 28.8747 123.469 29.6559 123.25C30.8747 122.875 32.0309 122.281 33.0622 121.5C33.7497 121 34.3747 120.25 35.2809 120.313C36.2809 120.406 36.2809 118.813 35.2809 118.75C33.8122 118.625 32.9059 119.75 31.7809 120.5C30.7497 121.188 29.5934 121.688 28.3747 121.969C27.6872 122.125 26.9684 122.156 26.3434 122.469C23.0934 124 25.0309 128.656 27.6247 129.688C30.9997 131.063 35.0309 129.594 37.2809 126.875C39.4059 124.281 39.4059 119.75 35.5309 118.813C34.4997 118.563 34.0934 120.094 35.0622 120.313Z" fill="#FFEEF0"/>
<path d="M383.719 292.75C382.594 292.906 381.375 292.094 380.844 291.156C379.594 289.031 381.281 285.406 383.875 283.937C385.281 283.156 387.844 282.437 389.406 283.844C390.188 284.531 390.813 285.812 390.469 286.906C390.094 288.062 388.938 287.906 387.125 289.406C385.031 291.125 385.063 292.562 383.719 292.75Z" fill="#FFEEF0"/>
<path d="M201.281 8.71873C201.718 9.74998 201.187 11.0937 200.437 11.8437C198.687 13.5312 194.812 12.7812 192.781 10.6562C191.687 9.49998 190.437 7.21873 191.375 5.37498C191.843 4.46873 192.937 3.56248 194.062 3.65623C195.281 3.74998 195.375 4.87498 197.25 6.24998C199.375 7.84373 200.75 7.49998 201.281 8.71873Z" fill="#FFEEF0"/>
<path d="M383.437 91.8125C383.375 91.125 383.844 90.4062 384.344 90.0625C385.719 89.1562 388.281 90.3125 389.406 92.0937C390.218 93.4062 390.468 95.4687 389.5 96.4687C389.406 96.5625 388.843 97.0937 388.187 97C387.375 96.875 387.281 95.9062 386.25 94.6562C384.844 92.9062 383.531 92.9375 383.437 91.8125Z" fill="#FFEEF0"/>
<path d="M233.25 191.344C234.268 191.344 235.094 190.518 235.094 189.5C235.094 188.482 234.268 187.656 233.25 187.656C232.232 187.656 231.406 188.482 231.406 189.5C231.406 190.518 232.232 191.344 233.25 191.344Z" fill="#FFD0D4"/>
<path d="M338.063 122.969C339.081 122.969 339.906 122.143 339.906 121.125C339.906 120.107 339.081 119.281 338.063 119.281C337.044 119.281 336.219 120.107 336.219 121.125C336.219 122.143 337.044 122.969 338.063 122.969Z" fill="#FFD0D4"/>
<path d="M13.5312 296.531C14.5495 296.531 15.375 295.706 15.375 294.687C15.375 293.669 14.5495 292.844 13.5312 292.844C12.513 292.844 11.6875 293.669 11.6875 294.687C11.6875 295.706 12.513 296.531 13.5312 296.531Z" fill="#FFD0D4"/>
<path d="M68.125 167.375C69.5747 167.375 70.75 166.2 70.75 164.75C70.75 163.3 69.5747 162.125 68.125 162.125C66.6753 162.125 65.5 163.3 65.5 164.75C65.5 166.2 66.6753 167.375 68.125 167.375Z" fill="#FFD0D4"/>
<path d="M120 244.344C121.208 244.344 122.187 243.364 122.187 242.156C122.187 240.948 121.208 239.969 120 239.969C118.792 239.969 117.812 240.948 117.812 242.156C117.812 243.364 118.792 244.344 120 244.344Z" fill="#FFD0D4"/>
<path d="M35.3125 225.875C36.0374 225.875 36.625 225.287 36.625 224.563C36.625 223.838 36.0374 223.25 35.3125 223.25C34.5876 223.25 34 223.838 34 224.563C34 225.287 34.5876 225.875 35.3125 225.875Z" fill="#FFD0D4"/>
<path d="M301.594 18.75C302.319 18.75 302.906 18.1624 302.906 17.4375C302.906 16.7126 302.319 16.125 301.594 16.125C300.869 16.125 300.281 16.7126 300.281 17.4375C300.281 18.1624 300.869 18.75 301.594 18.75Z" fill="#FFEEF0"/>
<path d="M294.906 176.594C295.631 176.594 296.219 176.006 296.219 175.281C296.219 174.556 295.631 173.969 294.906 173.969C294.181 173.969 293.594 174.556 293.594 175.281C293.594 176.006 294.181 176.594 294.906 176.594Z" fill="#FFEEF0"/>
<path d="M385.469 240.719C386.194 240.719 386.781 240.131 386.781 239.406C386.781 238.681 386.194 238.094 385.469 238.094C384.744 238.094 384.156 238.681 384.156 239.406C384.156 240.131 384.744 240.719 385.469 240.719Z" fill="#FFEEF0"/>
<path d="M59.1875 29.5625C58.5 34.25 56.3438 38.8125 53.1563 42.3438C47.75 48.2813 39.625 50.7813 31.7188 50.1563C30.7187 50.0938 30.7187 51.6563 31.7188 51.7188C39.8438 52.3438 48.2813 49.75 53.9688 43.75C57.5 40.0313 59.9375 35.0938 60.6875 30C60.8438 29 59.3438 28.5625 59.1875 29.5625Z" fill="#FFEEF0"/>
<path d="M384.719 176C378 178.469 370.094 177.844 364.563 172.969C360.469 169.406 358.407 164.031 358.407 158.656C358.407 157.656 356.844 157.656 356.844 158.656C356.813 164.562 359.188 170.531 363.813 174.375C369.75 179.312 378 180.094 385.125 177.5C386.063 177.156 385.657 175.656 384.719 176Z" fill="#FFEEF0"/>
<path d="M350.875 39.5625C351.5 39.5625 353.844 39.625 355.937 41.375C358.125 43.2188 358.531 45.6563 358.625 46.2188C358.625 45.5313 358.781 43.0625 360.656 41.0938C362.656 39 365.812 38.2813 368.812 39.1875C367.219 38.6875 365.094 37.6875 363.812 35.7813C363.5 35.3125 363.344 34.9375 363.312 34.8438C362.469 32.6875 363.594 30.5 364.031 29.7188C363.687 30.1563 361.219 33.0313 357.406 32.9375C355.875 32.9063 354.687 32.375 353.937 32C354.156 32.2188 355.594 33.5938 355.437 35.5C355.281 37.5313 353.406 39.3438 350.875 39.5625Z" fill="#FFEEF0"/>
<path d="M84.6875 304.719C85.125 304.312 86.9063 302.75 89.6875 302.656C92.5625 302.562 94.5 304.062 94.9375 304.437C94.4687 303.906 92.9375 302 93 299.281C93.0625 296.406 94.9375 293.75 97.7812 292.406C96.25 293.094 94.0313 293.781 91.7813 293.219C91.2188 293.062 90.875 292.906 90.75 292.844C88.6562 291.812 88.0313 289.437 87.8438 288.594C87.875 289.156 87.9687 292.937 85.0937 295.406C83.9375 296.406 82.6875 296.812 81.875 297.031C82.1875 297.031 84.1563 297.094 85.3125 298.625C86.5625 300.25 86.375 302.844 84.6875 304.719Z" fill="#FFEEF0"/>
<path d="M264.437 152.25C261.187 152.25 257.969 152.25 254.719 152.25C246.625 152.25 238.531 152.25 230.437 152.25C219.844 152.25 209.219 152.25 198.625 152.25C187.781 152.25 176.969 152.25 166.125 152.25C157.531 152.25 148.906 152.25 140.312 152.25C136.219 152.25 132.125 152.25 128.031 152.25C114.906 152.25 102.062 147.938 91.6873 139.875C79.9061 130.719 71.9373 117.219 69.6248 102.469C67.2498 87.375 70.9686 71.6875 79.8436 59.25C88.4998 47.0625 101.75 38.5312 116.406 35.625C122.094 34.5 127.781 34.5312 133.531 34.5312C140.656 34.5312 147.781 34.5312 154.906 34.5312C165.156 34.5312 175.437 34.5312 185.687 34.5312C196.656 34.5312 207.594 34.5312 218.562 34.5312C227.906 34.5312 237.281 34.5312 246.625 34.5312C252.062 34.5312 257.469 34.5312 262.906 34.5312C272.844 34.5312 282.531 36.4375 291.406 41.0312C304.656 47.875 315.094 59.75 320 73.875C325.031 88.2812 324.281 104.469 317.812 118.281C311.469 131.781 300 142.656 286.125 148.125C279.187 150.844 271.844 152.219 264.437 152.25C263.437 152.25 263.437 153.812 264.437 153.812C279.562 153.75 294.25 148.062 305.375 137.812C316.406 127.656 323.312 113.562 324.625 98.625C325.937 83.625 321.468 68.4375 312.281 56.5C303.156 44.6875 289.719 36.4687 275 33.875C269.406 32.9062 263.844 32.9375 258.219 32.9375C250.75 32.9375 243.25 32.9375 235.781 32.9375C225.219 32.9375 214.625 32.9375 204.062 32.9375C192.906 32.9375 181.75 32.9375 170.594 32.9375C161.344 32.9375 152.125 32.9375 142.875 32.9375C138.062 32.9375 133.25 32.9375 128.437 32.9375C116.687 32.9375 105.156 36.0937 95.2498 42.4375C82.7811 50.4375 73.4998 62.9375 69.5311 77.2187C65.4686 91.9062 67.1873 107.937 74.2811 121.438C81.1561 134.531 92.8436 144.812 106.687 149.969C114.469 152.875 122.562 153.75 130.812 153.75C137.156 153.75 143.5 153.75 149.844 153.75C159.906 153.75 169.937 153.75 180 153.75C191.25 153.75 202.5 153.75 213.75 153.75C223.687 153.75 233.625 153.75 243.562 153.75C249.687 153.75 255.812 153.75 261.906 153.75C262.75 153.75 263.594 153.75 264.437 153.75C265.437 153.812 265.437 152.25 264.437 152.25Z" fill="#FFD0D4"/>
<path d="M311.25 93.4375C311.25 120.375 289.438 142.188 262.5 142.188C261 142.188 259.5 142.125 258 141.969C256.312 141.812 254.406 141.562 252.375 141.125C250.187 140.656 248.219 140.094 246.531 139.5C227.438 132.875 213.75 114.75 213.75 93.4375C213.75 66.5 235.562 44.6875 262.5 44.6875C289.438 44.6875 311.25 66.5 311.25 93.4375Z" fill="#31DB6A"/>
<path d="M261.719 69.1563C261.719 77.25 261.719 85.3438 261.719 93.4375C261.719 94 262.406 94.4375 262.906 94.125C273.187 87.3438 283.437 80.5625 293.719 73.7813C294.562 73.2188 293.781 71.875 292.937 72.4375C282.656 79.2188 272.406 86 262.125 92.7813C262.531 93 262.906 93.2188 263.312 93.4688C263.312 85.375 263.312 77.2813 263.312 69.1875C263.281 68.1563 261.719 68.125 261.719 69.1563Z" fill="#41214C"/>
<path d="M181.125 304.906C172.531 304.469 163.937 304.063 155.312 303.625C156.281 298.844 157.375 293.281 158.469 287.906L165.156 287C163.75 293.031 162.75 297.406 162.719 298.094C168.125 298.781 172.094 299.219 174.687 299.5C177.5 299.813 180.125 300.063 181.031 301.844C181.625 302.938 181.375 304.125 181.125 304.906Z" fill="#31DB6A"/>
<path d="M164.031 292.875C162.718 292.688 161.437 292.5 160.125 292.313C159.156 292.156 158.718 293.688 159.718 293.813C161.031 294 162.312 294.188 163.625 294.375C164.593 294.531 165.031 293 164.031 292.875Z" fill="#F6EF00"/>
<path d="M163.594 295.875C162.594 295.844 161.594 295.813 160.594 295.781C159.594 295.75 159.594 297.312 160.594 297.344C161.594 297.375 162.594 297.406 163.594 297.437C164.625 297.469 164.625 295.906 163.594 295.875Z" fill="#F6EF00"/>
<path d="M64.75 246.812C64.4062 246.937 64.125 247.031 63.8438 247.125C58.7813 248.781 54.4688 250 51.3438 250.812C49.2188 253.719 47.6875 256.187 46.7188 257.906C44.4375 261.906 42.7188 265.781 40.1875 266.344C38.7813 266.656 37.375 266.437 37.375 266.437C36.5 266.312 35.8438 266.062 35.375 265.875C39.4375 258.937 43.5 252.031 47.5625 245.094C48.3438 244.844 53.7813 243.375 61.25 240.781L64.75 246.812Z" fill="#31DB6A"/>
<path d="M57.5309 248.531C57.3122 247.25 57.1247 245.938 56.9059 244.656C56.7497 243.656 55.2497 244.094 55.4059 245.063C55.6247 246.344 55.8122 247.656 56.0309 248.938C56.1559 249.938 57.6872 249.531 57.5309 248.531Z" fill="#F6EF00"/>
<path d="M54.1561 249.406C53.9061 248.438 53.6248 247.469 53.3748 246.531C53.0936 245.563 51.5935 245.969 51.8748 246.938C52.1248 247.906 52.406 248.875 52.656 249.813C52.9373 250.781 54.4373 250.375 54.1561 249.406Z" fill="#F6EF00"/>
<path d="M124.875 209.719C114.187 221.625 104.031 228.594 97.5625 232.406C84.7812 240 70.4687 244.906 64.7188 246.812L61.1875 240.75C73.6562 236.437 91.8125 229.062 103.844 219.281C108.437 215.562 112.375 211.75 115.812 208C115.875 207.937 115.937 207.875 116 207.781C117.812 208.062 119.625 208.344 121.5 208.625C122.812 208.812 124.094 209 125.406 209.156C125.219 209.312 125.062 209.531 124.875 209.719Z" fill="#41214C"/>
<path d="M165.187 287.031L158.5 287.938C159.187 284.5 159.875 281.156 160.469 278.094C162.781 266.531 165.094 254.969 167.406 243.375C164.969 234.375 162.562 225.406 160.125 216.406C160.063 216.094 160 215.781 159.937 215.469C162.687 215.531 165.469 215.594 168.219 215.656C168.312 215.875 168.375 216.062 168.469 216.281C169.062 218.375 169.531 220.031 169.812 221.031C174.25 236.812 174.469 240.313 174.531 241.938C174.656 246.438 168.656 271.937 165.187 287.031Z" fill="#41214C"/>
<path d="M134.312 197.969C131.187 202.344 128 206.219 124.875 209.719C123.719 209.781 122.469 209.75 121.062 209.531C119.281 209.25 117.531 208.719 115.812 207.969C120.875 202.406 124.75 197.062 127.656 192.531C129.875 194.344 132.094 196.156 134.312 197.969Z" fill="#411244"/>
<path d="M207.938 153.813C207.344 155.156 207.031 156.625 207.094 158.469C207.094 158.688 207.125 158.906 207.156 159.094C207.219 159.719 207.344 160.25 207.469 160.781C208.75 165.5 212.688 166.969 213.344 172.625C213.5 173.563 213.594 174.531 213.625 175.5C213.625 176.031 213.625 176.563 213.625 177.125C213.312 184.625 209.406 192.75 203.281 196.094C197.062 199.469 192.25 195.906 186.812 200.75C183.875 203.375 184.781 204.875 181.031 208.813C178.875 211.813 172.812 215.531 166.719 216.563C166.719 216.563 166.719 216.563 166.688 216.563C164.406 216.938 162.156 216.938 160.062 216.375C157.406 215.938 155.281 215.125 153.875 214.563C146.906 211.875 147.219 209 141.906 207.219C134.781 204.813 131.375 209.219 124.875 209.656C126.412 207.963 127.991 206.119 129.581 204.122C131.272 202 132.794 199.931 134.169 197.944C133.122 197.197 132.037 196.372 130.925 195.466C129.756 194.513 128.684 193.569 127.703 192.653C126.156 194.959 124.45 197.353 122.572 199.8C120.3 202.759 118.037 205.459 115.841 207.906C109.466 205.219 103.778 199.781 101.184 193.469C97.7781 185.188 102.216 181.406 98.2156 174.563C93.9031 167.156 87.1219 169.563 83.1531 162.281C79.3406 155.281 80.3406 145.5 84.1531 138.781C84.6219 137.938 85.1219 137.188 85.6219 136.531C85.9344 136.094 86.2781 135.688 86.5906 135.313C91.0281 130.313 96.0594 130.344 98.6844 123.656C101.747 115.844 96.2469 112.219 98.8719 103.438C100.966 96.4375 106.997 90.3438 113.747 87.75C124.497 83.2813 128.716 91.8438 141.216 90C151.778 88.375 152.372 82.0625 162.247 81.7188C162.903 81.6875 174.591 81.4688 181.966 89.6563C188.028 96.375 185.216 102.188 191.341 107.125C196.341 111.125 199.747 107.5 206.872 111.781C208.341 112.656 214.434 116.438 216.716 123.625C218.403 128.906 217.247 133.531 216.153 137.656C214.091 145.438 210.716 148.75 208.716 152.156C208.438 152.75 208.188 153.281 207.938 153.813Z" fill="#FF8B8B"/>
<path d="M167.531 131.25C165.438 128.812 163.375 126.375 161.281 123.937C160.625 123.187 159.531 124.281 160.188 125.031C162.281 127.469 164.344 129.906 166.438 132.344C167.063 133.125 168.188 132 167.531 131.25Z" fill="#41214C"/>
<path d="M184.219 128.062C181.282 129.375 178.376 130.656 175.438 131.969C174.532 132.375 175.313 133.719 176.219 133.312C179.157 132 182.063 130.719 185.001 129.406C185.938 129 185.126 127.656 184.219 128.062Z" fill="#41214C"/>
<path d="M166.468 160.687C163.343 160.437 160.781 158.156 160 155.156C159.75 154.187 158.25 154.594 158.5 155.562C159.437 159.281 162.656 161.937 166.468 162.25C167.468 162.312 167.468 160.75 166.468 160.687Z" fill="#41214C"/>
<path d="M222.219 138.719C222.876 137.562 223.938 136.656 225.251 136.125C226.001 135.844 226.782 135.719 227.563 135.719C228.032 135.719 228.501 135.781 228.938 135.906C229.032 135.937 229.126 135.937 229.188 135.969C230.907 136.5 232.407 137.781 233.094 139.594C233.376 140.281 233.501 141 233.501 141.719C233.532 143.562 232.688 145.344 231.251 146.5C231.032 146.656 230.813 146.812 230.594 146.969C230.282 147.156 229.969 147.312 229.626 147.437C226.782 148.531 223.626 147.375 222.157 144.812C222.063 144.625 221.938 144.437 221.876 144.219C221.844 144.156 221.813 144.062 221.782 144C221.094 142.187 221.313 140.25 222.219 138.719Z" fill="#FF8B8B"/>
<path d="M226.906 141.781C216.75 151.938 205.594 161.219 193.188 168.5C185.469 173 177.25 176.75 168.531 178.781C162.188 180.281 154.594 181.25 148.469 178.344C142.188 175.344 138.656 168.781 137.156 162.25C136.938 161.281 135.438 161.688 135.656 162.656C137.125 169.094 140.469 175.344 146.219 178.875C151 181.813 157.031 182.031 162.438 181.406C180.5 179.344 197.156 169.063 211.125 158C217.063 153.313 222.688 148.219 228.031 142.875C228.719 142.156 227.625 141.063 226.906 141.781Z" fill="#41214C"/>
<path d="M258.032 142.125C258.063 143.969 257.219 145.75 255.782 146.906C255.563 147.062 255.344 147.219 255.125 147.375C254.813 147.562 254.5 147.719 254.157 147.844C252.407 148.531 250.532 148.344 249 147.5C248.532 147.25 248.125 146.937 247.75 146.562C247.344 146.187 247 145.719 246.719 145.219C246.625 145.031 246.5 144.844 246.438 144.625C246.407 144.562 246.375 144.469 246.344 144.406C245.719 142.75 245.844 141 246.563 139.531C246.625 139.406 246.688 139.281 246.782 139.156C246.844 139.062 246.907 138.969 246.969 138.875C248.282 139.531 250.032 140.281 252.219 140.781C254.5 141.312 256.5 141.406 258.032 141.375C258.063 141.469 258.063 141.594 258.094 141.75C258.094 141.875 258.094 141.969 258.094 142.062C258 142 258 142.062 258.032 142.125Z" fill="#FF8B8B"/>
<path d="M258 141.969C254 141.594 250.156 140.75 246.5 139.5C246.563 139.375 246.625 139.25 246.719 139.125C247.375 137.969 248.438 137.062 249.75 136.531C250.5 136.25 251.281 136.125 252.063 136.125C252.531 136.125 253 136.187 253.438 136.312C253.531 136.344 253.594 136.344 253.688 136.375C255.406 136.906 256.906 138.187 257.594 139.969C257.844 140.656 258 141.312 258 141.969Z" fill="#31775F"/>
<path d="M214.032 177.062C228.438 170.187 240.751 159.5 249.782 146.344C250.344 145.5 249.001 144.719 248.438 145.562C239.563 158.5 227.407 168.969 213.251 175.719C212.344 176.156 213.126 177.5 214.032 177.062Z" fill="#41214C"/>
<path d="M162.688 144.406C160.969 146.125 158.469 147.031 155.875 146.562C151.688 145.812 148.875 141.812 149.625 137.625C150.25 134.031 153.281 131.5 156.75 131.281C155.5 132.375 154.594 133.875 154.281 135.656C153.563 139.75 156.281 143.656 160.375 144.375C161.156 144.5 161.938 144.531 162.688 144.406Z" fill="white"/>
<path d="M164.812 140.313C164.531 141.906 163.75 143.313 162.687 144.406C161.937 144.5 161.156 144.5 160.344 144.375C156.25 143.656 153.531 139.75 154.25 135.656C154.562 133.875 155.469 132.375 156.719 131.281C157.312 131.25 157.906 131.281 158.531 131.375C162.781 132.125 165.562 136.125 164.812 140.313Z" fill="#41214C"/>
<path d="M194.938 145.688C194.656 147.281 193.875 148.688 192.813 149.781C191.094 151.531 188.563 152.406 186 151.938C181.813 151.188 179 147.188 179.75 143C180.375 139.406 183.406 136.844 186.875 136.656C187.469 136.625 188.063 136.656 188.688 136.75C192.875 137.469 195.656 141.5 194.938 145.688Z" fill="white"/>
<path d="M194.937 145.688C194.656 147.281 193.875 148.688 192.812 149.781C192.062 149.875 191.281 149.875 190.469 149.75C186.375 149.031 183.656 145.125 184.375 141.031C184.687 139.25 185.594 137.75 186.844 136.656C187.437 136.625 188.031 136.656 188.656 136.75C192.875 137.469 195.656 141.5 194.937 145.688Z" fill="#41214C"/>
<path d="M195.813 141.969C193.688 137.406 188.75 134.531 183.719 134.969C179.688 135.313 176.219 137.625 174.219 140.969C172.5 138.25 168.875 137.156 165.969 138.719C165.781 138 165.531 137.281 165.219 136.563C163.094 132 158.156 129.125 153.125 129.563C147.594 130.031 143.125 134.188 142.062 139.594C141.312 144.375 143.187 149.156 147.219 151.938C151.75 155.031 157.938 154.625 162.094 151.094C165.219 148.438 166.719 144.313 166.25 140.344C168.781 138.719 172.281 139.719 173.312 142.656C173.312 142.656 173.313 142.688 173.344 142.688C173.063 143.406 172.813 144.188 172.656 145C171.906 149.781 173.781 154.563 177.813 157.344C182.344 160.438 188.531 160.031 192.688 156.5C196.906 152.969 198.125 146.906 195.813 141.969ZM162.75 148.125C159.781 152.156 154.187 153.625 149.656 151.5C145.281 149.469 142.844 144.719 143.562 139.969C144.344 135.906 147.219 132.563 151.25 131.438C155.438 130.281 160.031 131.844 162.656 135.313C165.469 139.063 165.5 144.375 162.75 148.125ZM193.375 153.563C190.406 157.594 184.813 159.063 180.281 156.938C175.906 154.906 173.469 150.156 174.188 145.406C174.969 141.344 177.844 138 181.875 136.875C186.063 135.719 190.656 137.281 193.281 140.75C196.094 144.469 196.125 149.781 193.375 153.563Z" fill="#41214C"/>
<path d="M366.469 271.531C364.812 269.688 358.281 262.875 347.594 261.75C340.25 260.969 334.5 263.219 331.937 264.438C330.75 261.969 329.719 259.219 328.844 256.313C329.312 255.219 329.75 253.969 330.156 252.656C331.094 249.531 331.469 246.656 331.594 244.281C336.5 247.906 341.437 251.531 346.344 255.156L342.656 224.563L353.094 247.75L360 226.844C369.125 244.875 370.937 261.688 366.469 271.531Z" fill="#31DB6A"/>
<path d="M312.031 271.438C312.031 271.5 312 271.563 312 271.625C311.969 271.531 311.938 271.438 311.875 271.344C311.938 271.375 312 271.406 312.031 271.438Z" fill="#31DB6A"/>
<path d="M324.656 286.906C323.531 287.75 322.438 288.594 321.313 289.438C318.563 289.656 316.25 291.469 315.313 293.969C311.188 297.094 307.031 300.219 302.906 303.344C303.438 298.688 303.938 294.031 304.469 289.375C305.344 286.469 306.469 283.313 307.906 279.969C309.219 276.875 310.625 274.094 312 271.625C312.156 271.813 314.813 275.25 317.688 276.313C318.938 276.75 320.344 276.938 320.344 276.938C321.094 277.031 321.75 277.063 322.25 277.063C322.906 277.438 323.563 277.781 324.219 278.156C324.406 279.281 324.531 280.531 324.625 281.844C324.781 283.688 324.75 285.375 324.656 286.906Z" fill="#31DB6A"/>
<path d="M368.812 281.531C368.812 293.906 358.781 303.938 346.406 303.938C339.219 303.938 332.813 300.563 328.719 295.281C328.469 294.594 328.125 293.813 327.625 293C327.063 292.063 326.5 291.313 325.969 290.75C325.406 289.5 324.969 288.219 324.625 286.875C324.913 286.222 325.419 285.291 326.3 284.388C327.684 282.969 329.234 282.4 330.028 282.169C329.222 281.844 328.262 281.381 327.25 280.71C325.922 279.825 324.941 278.872 324.25 278.094C324.344 277.469 324.469 276.875 324.625 276.281C325.063 275.938 327.906 273.625 328.938 270.938C329.094 270.563 329.5 269.438 329.75 267.969C329.875 267.313 329.938 266.75 329.969 266.313C330.563 265.656 331.219 265.031 331.906 264.438C332.438 265.531 338.625 277.813 350.031 279.063C351.844 279.25 356.5 279.781 361.094 276.969C363.969 275.219 365.594 272.906 366.438 271.531C367.969 274.563 368.812 277.938 368.812 281.531Z" fill="#FF8B8B"/>
<path d="M300.094 234.813C300.219 235.281 300.313 235.75 300.438 236.188C299.469 236.406 298.469 236.656 297.5 236.875L291.625 238.281C288.906 238.938 286.187 239.563 283.469 240.219C280.844 240.844 278.25 241.469 275.625 242.094L271.844 243C267.406 244.063 263 245.094 258.563 246.156C258.188 244.531 257.781 242.906 257.406 241.281L254.25 228L296.156 218.063L300.094 234.813Z" fill="#F6EF00"/>
<path d="M366.469 271.531C365.312 274.031 363.75 276.094 361.813 277.625C356.75 281.531 350.438 280.719 349.813 280.625C342.781 279.594 336.344 273.688 331.938 264.469C335.844 261.156 340.906 259.156 346.406 259.156C355.188 259.125 362.781 264.188 366.469 271.531Z" fill="#31775F"/>
<path d="M331.219 281.938C329.031 283.594 326.844 285.25 324.656 286.906C324.219 285.188 324 283.406 324 281.563C324 280.406 324.094 279.25 324.25 278.156C326.562 279.406 328.875 280.656 331.219 281.938Z" fill="#31775F"/>
<path d="M311.875 271.344C311.938 271.375 311.969 271.406 312.031 271.438C312.031 271.5 312 271.563 312 271.625C311.969 271.5 311.906 271.438 311.875 271.344Z" fill="#F6EF00"/>
<path d="M324.75 259.219C324.062 259.469 323.344 259.688 322.562 259.75C320.719 259.938 319.031 259.469 317.594 258.781C316.312 259.219 315.188 259.906 314.219 260.781C313.75 264.281 313.031 267.875 312.062 271.438C312.062 271.5 312.031 271.563 312.031 271.625C313.5 274.906 316.812 277.188 320.656 277.188C321.219 277.188 321.781 277.125 322.313 277.031C323.125 276.875 323.906 276.625 324.656 276.281C325.313 274.75 326.094 273.094 327 271.375C328 269.5 329 267.813 330 266.313C329.5 263.188 327.5 260.563 324.75 259.219Z" fill="#F6EF00"/>
<path d="M328.719 295.313C327.625 293.906 326.719 292.406 325.969 290.781C327.437 291.844 328.438 293.438 328.719 295.313Z" fill="#F68201"/>
<path d="M330.062 267.719C330.062 271.5 327.844 274.781 324.594 276.281C325.5 272.5 327.375 269.063 329.938 266.281C330.031 266.781 330.062 267.25 330.062 267.719Z" fill="#F68201"/>
<path d="M321.312 289.406C319.312 290.906 317.313 292.438 315.312 293.938C316.219 291.438 318.531 289.625 321.312 289.406Z" fill="#31CD00"/>
<path d="M328.812 296.375C328.812 300.219 325.688 303.344 321.844 303.344C318 303.344 314.875 300.219 314.875 296.375C314.875 295.531 315.031 294.719 315.313 293.969C317.313 292.469 319.312 290.938 321.312 289.438C321.5 289.438 321.656 289.406 321.844 289.406C323.406 289.406 324.813 289.906 325.969 290.781C326.688 292.406 327.625 293.938 328.719 295.313C328.781 295.656 328.812 296 328.812 296.375Z" fill="#F6EF00"/>
<path d="M312 271.594C311.969 271.5 311.938 271.406 311.875 271.313C311.938 271.344 311.969 271.375 312.031 271.406C312.031 271.5 312.031 271.531 312 271.594Z" fill="#FF8B8B"/>
<path d="M314.656 256.781C314.562 258.094 314.406 259.438 314.218 260.781C313.5 261.75 312.625 263.156 312.093 265.031C311.687 266.406 311.625 267.531 311.593 268.125C311.562 269.438 311.718 270.531 311.906 271.344C311.468 271.391 310.228 271.469 308.915 270.744C307.6 270.019 307.003 268.925 306.812 268.531C306.906 271.528 306.831 274.972 306.425 278.753C305.993 282.753 305.284 286.31 304.5 289.344C300.187 296.219 294.593 301.469 287.75 303.25C279.218 305.438 271.875 301.469 270.343 300.625C250.187 289.656 248.125 252.594 257.437 241.25C258.406 241.688 259.5 242.125 260.687 242.469C265.156 243.75 269.156 243.469 271.875 243C272.843 245.375 273.375 248.375 273.343 251.844C273.656 248.094 274.468 244.813 275.656 242.094C276.656 241.531 277.75 240.969 278.968 240.438C283.843 238.406 288.406 238.125 291.656 238.281C292.125 239.063 292.656 240.031 293.062 241.219C293.437 242.313 293.718 243.531 293.906 244.813C294.593 241.844 295.718 238.938 297.531 236.875C297.968 236.75 298.656 236.469 299.312 235.844C299.687 235.469 299.968 235.094 300.125 234.813C302.937 233.313 306.968 232.844 309.625 234.531C311.062 235.438 312.187 237.031 313.031 239.156C312 243.688 311.531 249.625 314.031 255.438C314.218 255.875 314.437 256.344 314.656 256.781Z" fill="#FF8B8B"/>
<path d="M314.218 260.781C313.75 264.281 313.031 267.875 312.062 271.438C312 271.406 311.968 271.375 311.906 271.344C311.437 270.25 311.187 269 311.187 267.75C311.156 264.969 312.343 262.5 314.218 260.781Z" fill="#F68201"/>
<path d="M312 271.594C310.25 277.906 307.75 284.094 304.469 289.344C305.25 282.406 306.031 275.469 306.781 268.531C308.469 269.469 310.188 270.406 311.875 271.344C311.906 271.438 311.969 271.5 312 271.594Z" fill="#31775F"/>
<path d="M326.406 240.813C326.531 243.031 326.844 245.625 327.531 248.531C328.125 251.125 328.906 253.406 329.688 255.313C329.406 255.656 329.125 255.969 328.844 256.313C328.406 256.813 327.812 257.344 327.062 257.906C326.375 258.406 325.594 258.875 324.75 259.219C324.219 259.031 323.5 258.844 322.656 258.719C321.719 258.563 321 258.563 320.438 258.563C319.688 258.563 318.719 258.594 317.594 258.781C316.375 258.188 315.375 257.438 314.656 256.781C314.656 253.844 314.531 250.625 314.156 247.156C313.875 244.281 313.469 241.625 313 239.156C314.406 234.625 316.719 229.656 319.906 224.563C326.188 231.281 330.25 238.313 331.562 244.281C330.781 243.938 329.906 243.5 328.969 242.875C327.906 242.188 327.063 241.469 326.406 240.813Z" fill="#41214C"/>
<path d="M271.813 243L258.531 246.156L257.375 241.281C258.125 240.344 258.969 239.594 259.875 239.031C261.781 237.875 264.938 237.031 267.563 238.156C269.406 238.938 270.844 240.625 271.813 243Z" fill="#F68201"/>
<path d="M324.75 259.219C324.062 259.469 323.344 259.688 322.562 259.75C320.719 259.938 319.031 259.469 317.594 258.781C318.531 258.469 319.562 258.281 320.625 258.281C322.094 258.281 323.5 258.625 324.75 259.219Z" fill="#3F1F00"/>
<path d="M300.438 236.188L297.5 236.875C298 236.313 298.562 235.813 299.156 235.375C299.469 235.156 299.781 234.969 300.125 234.781L300.438 236.188Z" fill="#F68201"/>
<path d="M314.656 256.781C314.437 256.563 314.218 256.375 314.062 256.188C310.937 252.781 310.718 246.594 312.999 239.156C314.687 243.375 315.218 249.719 314.656 256.781Z" fill="#411244"/>
<path d="M330.594 253.938C330.406 254.281 329.813 255.25 328.813 256.313C327.375 251.469 326.438 246.094 326.094 240.25C327.906 241.594 329.719 242.938 331.563 244.281C332.406 248.031 332.125 251.344 330.594 253.938Z" fill="#0C1C20"/>
<path d="M291.625 238.281L275.625 242.094C277.469 237.906 280.187 235.156 283.312 234.531C285.906 234 288 235.063 288.375 235.25C289.656 235.906 290.75 236.938 291.625 238.281Z" fill="#F68201"/>
<path d="M368.813 303.156C365 303.156 361.188 303.156 357.375 303.156C348.219 303.156 339.062 303.156 329.906 303.156C318.781 303.156 307.625 303.156 296.5 303.156C286.906 303.156 277.344 303.156 267.75 303.156C264.594 303.156 261.438 303.156 258.25 303.156C257.25 303.156 256.281 303.156 255.281 303.156C254.844 303.156 254.125 303 253.719 303.156C253.656 303.188 253.562 303.156 253.531 303.156C253.781 303.406 254.062 303.688 254.312 303.938C254.312 292.313 254.312 280.688 254.312 269.094C254.312 250.719 254.312 232.344 254.312 213.969C254.312 209.75 254.312 205.563 254.312 201.344C254.062 201.594 253.781 201.875 253.531 202.125C257.344 202.125 261.156 202.125 264.969 202.125C274.125 202.125 283.281 202.125 292.438 202.125C303.563 202.125 314.719 202.125 325.844 202.125C335.438 202.125 345 202.125 354.594 202.125C357.75 202.125 360.906 202.125 364.094 202.125C365.094 202.125 366.063 202.125 367.063 202.125C367.5 202.125 368.219 202.281 368.625 202.125C368.688 202.094 368.781 202.125 368.813 202.125C368.563 201.875 368.281 201.594 368.031 201.344C368.031 212.969 368.031 224.594 368.031 236.188C368.031 254.563 368.031 272.938 368.031 291.313C368.031 295.531 368.031 299.719 368.031 303.938C368.031 304.938 369.594 304.938 369.594 303.938C369.594 292.313 369.594 280.688 369.594 269.094C369.594 250.719 369.594 232.344 369.594 213.969C369.594 209.75 369.594 205.563 369.594 201.344C369.594 200.906 369.25 200.563 368.813 200.563C365 200.563 361.188 200.563 357.375 200.563C348.219 200.563 339.062 200.563 329.906 200.563C318.781 200.563 307.625 200.563 296.5 200.563C286.906 200.563 277.344 200.563 267.75 200.563C264.594 200.563 261.438 200.563 258.25 200.563C256.781 200.563 255.187 200.375 253.75 200.563C253.687 200.563 253.625 200.563 253.563 200.563C253.125 200.563 252.781 200.906 252.781 201.344C252.781 212.969 252.781 224.594 252.781 236.188C252.781 254.563 252.781 272.938 252.781 291.313C252.781 295.531 252.781 299.719 252.781 303.938C252.781 304.375 253.125 304.719 253.563 304.719C257.375 304.719 261.187 304.719 265 304.719C274.156 304.719 283.313 304.719 292.469 304.719C303.594 304.719 314.75 304.719 325.875 304.719C335.469 304.719 345.031 304.719 354.625 304.719C357.781 304.719 360.938 304.719 364.125 304.719C365.594 304.719 367.188 304.906 368.625 304.719C368.688 304.719 368.75 304.719 368.813 304.719C369.813 304.719 369.813 303.156 368.813 303.156Z" fill="#41214C"/>
<path d="M281.625 245.75H200.062V304.844H281.625V245.75Z" fill="#31DB6A"/>
<path d="M292.344 212.313C293.312 210.813 294.094 209.125 295 207.563C296.969 204.125 299.031 200.781 301.219 197.5C306.469 189.656 312.562 181.375 320.625 176.219C323.594 174.313 327.469 172.5 331.125 173.125C333.781 173.563 335.406 175.656 336.25 178.125C337.344 181.313 337.375 184.844 337.25 188.188C337.062 192.094 336.5 195.969 335.781 199.813C334.781 205.031 333.531 210.25 331.937 215.313C331.625 216.281 333.125 216.688 333.437 215.719C334.875 211.188 336.031 206.531 336.969 201.875C338.437 194.594 339.969 186.344 338.125 178.969C337.469 176.313 336.125 173.625 333.594 172.344C330.562 170.781 326.781 171.625 323.781 172.844C314.937 176.5 308.281 184.906 302.844 192.438C299.906 196.531 297.187 200.781 294.625 205.125C293.406 207.219 292.344 209.469 291 211.531C290.469 212.375 291.812 213.156 292.344 212.313Z" fill="#41214C"/>
<path d="M219.907 259.531C218.969 253.063 219.719 246.25 222.563 240.281C224.719 235.813 228.188 231.406 232.969 229.656C241.219 226.625 250.313 232.625 255.25 238.875C259.313 244 261.563 250.281 262.188 256.75C262.282 257.75 263.844 257.75 263.75 256.75C262.688 245.531 256.563 234.375 246.063 229.438C242.282 227.656 237.907 226.719 233.813 227.75C228.719 229.031 224.75 233.156 222.219 237.594C218.344 244.313 217.344 252.313 218.438 259.906C218.532 260.938 220.032 260.531 219.907 259.531Z" fill="#41214C"/>
<path d="M244.687 274.813C244.687 274.813 241.469 266.344 236.875 266.438C235.75 266.469 234.531 266.969 233.906 267.719C230.843 271.375 239.219 283.625 245.812 292.188C248 287.563 249.687 283.563 250.875 280.531C253.875 272.906 254.375 270.125 253 268.375C252.375 267.563 251.344 266.969 250.281 267C247.937 267.031 245.531 270.063 244.687 274.813Z" fill="#FF8B8B"/>
<path d="M262.969 259.75C264.608 259.75 265.938 258.421 265.938 256.781C265.938 255.142 264.608 253.813 262.969 253.813C261.329 253.813 260 255.142 260 256.781C260 258.421 261.329 259.75 262.969 259.75Z" fill="#41214C"/>
<path d="M218.719 262.719C220.358 262.719 221.688 261.39 221.688 259.75C221.688 258.11 220.358 256.781 218.719 256.781C217.079 256.781 215.75 258.11 215.75 259.75C215.75 261.39 217.079 262.719 218.719 262.719Z" fill="#41214C"/>
<path d="M291.938 214.906C293.577 214.906 294.906 213.577 294.906 211.938C294.906 210.298 293.577 208.969 291.938 208.969C290.298 208.969 288.969 210.298 288.969 211.938C288.969 213.577 290.298 214.906 291.938 214.906Z" fill="#41214C"/>
<path d="M333.062 219.062C334.702 219.062 336.031 217.733 336.031 216.094C336.031 214.454 334.702 213.125 333.062 213.125C331.423 213.125 330.094 214.454 330.094 216.094C330.094 217.733 331.423 219.062 333.062 219.062Z" fill="#41214C"/>
</svg>
